<?xml version="1.0" encoding="UTF-8" standalone="no"?>
<!-- Created with Inkscape (http://www.inkscape.org/) -->

<svg
   xmlns:dc="http://purl.org/dc/elements/1.1/"
   xmlns:cc="http://creativecommons.org/ns#"
   xmlns:rdf="http://www.w3.org/1999/02/22-rdf-syntax-ns#"
   xmlns:svg="http://www.w3.org/2000/svg"
   xmlns="http://www.w3.org/2000/svg"
   xmlns:sodipodi="http://sodipodi.sourceforge.net/DTD/sodipodi-0.dtd"
   xmlns:inkscape="http://www.inkscape.org/namespaces/inkscape"
   width="12.184mm"
   height="12.184mm"
   viewBox="0 0 12.184 12.184"
   version="1.1"
   id="svg1883"
   inkscape:version="0.92.5 (2060ec1f9f, 2020-04-08)"
   sodipodi:docname="favicon.svg">
  <defs
     id="defs1877" />
  <sodipodi:namedview
     id="base"
     pagecolor="#ffffff"
     bordercolor="#666666"
     borderopacity="1.0"
     inkscape:pageopacity="0.0"
     inkscape:pageshadow="2"
     inkscape:zoom="7.9195959"
     inkscape:cx="20.835737"
     inkscape:cy="23.083852"
     inkscape:document-units="mm"
     inkscape:current-layer="layer1"
     showgrid="false"
     inkscape:window-width="1366"
     inkscape:window-height="704"
     inkscape:window-x="0"
     inkscape:window-y="27"
     inkscape:window-maximized="1" />
  <metadata
     id="metadata1880">
    <rdf:RDF>
      <cc:Work
         rdf:about="">
        <dc:format>image/svg+xml</dc:format>
        <dc:type
           rdf:resource="http://purl.org/dc/dcmitype/StillImage" />
        <dc:title></dc:title>
      </cc:Work>
    </rdf:RDF>
  </metadata>
  <g
     inkscape:label="Layer 1"
     inkscape:groupmode="layer"
     id="layer1"
     transform="translate(0,-284.816)">
    <g
       id="g942"
       transform="matrix(0.35277777,0,0,-0.35277777,6.092,287.41632)">
      <path
         d="M 0,0 C 0.215,-0.481 1.848,-3.688 6.886,-3.009 6.542,-3.052 6.792,-5.82 6.706,-7.204 6.654,-7.995 6.362,-8.631 5.966,-9.139 5.579,-9.629 5.433,-9.723 4.952,-9.345 4.204,-8.76 3.327,-8.305 2.373,-8.193 1.513,-8.09 1.066,-9.173 0,-9.19 c -1.066,0.017 -1.513,1.1 -2.373,0.997 -0.954,-0.112 -1.831,-0.567 -2.579,-1.152 -0.481,-0.378 -0.627,-0.284 -1.014,0.206 -0.396,0.508 -0.688,1.144 -0.74,1.935 -0.086,1.384 0.164,4.152 -0.18,4.195 C -1.848,-3.688 -0.215,-0.481 0,0 m -10.617,-11.537 c 0.765,-0.447 2.244,-0.542 2.983,-0.49 0.086,0 0.12,-0.103 0.069,-0.155 -0.688,-0.688 -1.333,-1.203 -2.081,-1.53 -0.206,-0.086 -0.301,-0.335 -0.189,-0.533 0.86,-1.487 2.949,-1.41 2.949,-1.41 0,0 -5.863,-11.494 6.886,-11.511 12.749,0.017 6.886,11.511 6.886,11.511 0,0 2.089,-0.077 2.949,1.41 0.112,0.198 0.017,0.447 -0.189,0.533 -0.748,0.327 -1.393,0.842 -2.081,1.53 -0.051,0.052 -0.017,0.155 0.069,0.155 0.739,-0.052 2.218,0.043 2.983,0.49 1.195,0.705 1.659,2.356 0.989,3.585 -0.249,0.464 -0.619,0.851 -0.782,1.35 -0.241,0.705 -0.009,1.418 0.094,2.123 0.112,0.86 0.017,1.702 -0.55,2.39 -0.267,0.327 -0.585,0.61 -0.834,0.963 C 8.717,0.034 8.795,1.59 8.434,2.966 8.158,4.006 7.11,7.247 3.164,7.368 1.496,7.419 0.181,6.723 0,6.68 -0.181,6.723 -1.496,7.419 -3.164,7.368 -7.11,7.247 -8.158,4.006 -8.434,2.966 -8.795,1.59 -8.717,0.034 -9.534,-1.126 c -0.249,-0.353 -0.567,-0.636 -0.834,-0.963 -0.567,-0.688 -0.662,-1.53 -0.55,-2.39 0.103,-0.705 0.335,-1.418 0.094,-2.123 -0.163,-0.499 -0.533,-0.886 -0.782,-1.35 -0.67,-1.229 -0.206,-2.88 0.989,-3.585"
         style="fill:#d94733;fill-opacity:1;fill-rule:nonzero;stroke:none"
         id="path944"
         inkscape:connector-curvature="0" />
    </g>
  </g>
</svg>
