<?xml version="1.0" encoding="UTF-8" standalone="no"?>
<!-- Created with Inkscape (http://www.inkscape.org/) -->

<svg
   xmlns:dc="http://purl.org/dc/elements/1.1/"
   xmlns:cc="http://creativecommons.org/ns#"
   xmlns:rdf="http://www.w3.org/1999/02/22-rdf-syntax-ns#"
   xmlns:svg="http://www.w3.org/2000/svg"
   xmlns="http://www.w3.org/2000/svg"
   xmlns:sodipodi="http://sodipodi.sourceforge.net/DTD/sodipodi-0.dtd"
   xmlns:inkscape="http://www.inkscape.org/namespaces/inkscape"
   width="200"
   height="166"
   viewBox="0 0 52.916665 43.920835"
   version="1.1"
   id="svg607"
   inkscape:version="0.92.3 (2405546, 2018-03-11)"
   sodipodi:docname="logo.svg">
  <defs
     id="defs601" />
  <sodipodi:namedview
     id="base"
     pagecolor="#ffffff"
     bordercolor="#666666"
     borderopacity="1.0"
     inkscape:pageopacity="0.0"
     inkscape:pageshadow="2"
     inkscape:zoom="2.8284271"
     inkscape:cx="76.621681"
     inkscape:cy="78.384123"
     inkscape:document-units="mm"
     inkscape:current-layer="layer1"
     showgrid="false"
     units="px"
     inkscape:window-width="1680"
     inkscape:window-height="1013"
     inkscape:window-x="1366"
     inkscape:window-y="0"
     inkscape:window-maximized="1" />
  <metadata
     id="metadata604">
    <rdf:RDF>
      <cc:Work
         rdf:about="">
        <dc:format>image/svg+xml</dc:format>
        <dc:type
           rdf:resource="http://purl.org/dc/dcmitype/StillImage" />
        <dc:title></dc:title>
      </cc:Work>
    </rdf:RDF>
  </metadata>
  <g
     inkscape:label="Layer 1"
     inkscape:groupmode="layer"
     id="layer1"
     transform="translate(0,-253.07915)">
    <g
       transform="matrix(0.32273438,0,0,0.32273438,-69.599601,231.1449)"
       id="Layer1000"
       inkscape:export-filename="/var/www/fabrikastyliev/public_html/images/logo.png"
       inkscape:export-xdpi="234.19833"
       inkscape:export-ydpi="234.19833">
      <g
         id="Layer1001">
        <path
           d="m 280.1827,142.3765 -0.0166,0.0158 h -6e-4 c -0.4283,-0.3089 -0.9722,-0.4884 -1.5461,-0.4455 -1.4311,0.1069 -2.778,1.3723 -2.5328,3.3015 0.3427,2.6939 3.691,3.5649 5.7476,2.1594 1.8566,-1.2684 2.254,-3.8083 2.5578,-5.5107 1.0567,-7.9453 1.986,-14.4841 3.0429,-22.4294 v -2e-4 l 8e-4,-3e-4 c 0.3721,-0.01 0.7447,-0.068 1.0981,-0.1754 1.8093,-0.5501 2.7992,-2.3157 2.6312,-4.0644 -0.3429,-3.5641 -4.4451,-5.2125 -7.3913,-3.5009 -2.2362,1.2978 -2.9962,3.4365 -2.9993,5.8864 z"
           style="fill:#663333;fill-rule:evenodd"
           id="path2"
           inkscape:connector-curvature="0" />
        <path
           d="m 315.0925,142.3765 0.0166,0.0158 h 5e-4 c 0.4283,-0.3089 0.9723,-0.4884 1.5461,-0.4455 1.4311,0.1069 2.778,1.3723 2.5328,3.3015 -0.3427,2.6939 -3.691,3.5649 -5.7475,2.1594 -1.8567,-1.2684 -2.2541,-3.8083 -2.5579,-5.5107 -1.0566,-7.9453 -1.986,-14.4841 -3.0429,-22.4294 v -2e-4 l -8e-4,-3e-4 c -0.3721,-0.01 -0.7447,-0.068 -1.0981,-0.1754 -1.8093,-0.5501 -2.7992,-2.3157 -2.6312,-4.0644 0.3429,-3.5641 4.4451,-5.2125 7.3914,-3.5009 2.2361,1.2978 2.9961,3.4365 2.9992,5.8864 z"
           style="fill:#663333;fill-rule:evenodd"
           id="path4"
           inkscape:connector-curvature="0" />
      </g>
      <path
         d="m 271.7642,110.3332 h 51.7467 v 3.783 h -51.7467 z"
         style="fill:#edc02d;fill-rule:evenodd"
         id="path7"
         inkscape:connector-curvature="0" />
      <path
         d="m 271.7642,109.5491 h 51.7467 c 0.4329,0 0.7842,0.3513 0.7842,0.7841 v 3.783 c 0,0.4328 -0.3513,0.7841 -0.7842,0.7841 h -51.7467 c -0.4328,0 -0.7841,-0.3513 -0.7841,-0.7841 v -3.783 c 0,-0.4328 0.3513,-0.7841 0.7841,-0.7841 z m 50.9626,1.5682 h -50.1785 v 2.2147 h 50.1785 z"
         style="fill:#663333;fill-rule:evenodd"
         id="path9"
         inkscape:connector-curvature="0" />
      <path
         d="m 278.3646,106.7008 h 38.546 l 6.6003,3.6324 h -51.7467 z"
         style="fill:#edc02d;fill-rule:evenodd"
         id="path11"
         inkscape:connector-curvature="0" />
      <path
         d="m 278.3647,105.9157 h 38.5457 c 0.1547,0 0.2992,0.0449 0.4206,0.122 l 6.5573,3.6086 c 0.3792,0.2083 0.5178,0.685 0.3095,1.0642 -0.1424,0.2594 -0.4102,0.4062 -0.6869,0.4065 v 10e-4 h -51.7467 c -0.4335,0 -0.7851,-0.3516 -0.7851,-0.7851 0,-0.3133 0.1835,-0.5834 0.4492,-0.7095 l 6.5591,-3.6098 c 0.1198,-0.0659 0.2497,-0.0969 0.3773,-0.0969 z m 38.3469,1.5702 h -38.148 l -3.7472,2.0622 h 45.6424 z"
         style="fill:#663333;fill-rule:evenodd"
         id="path13"
         inkscape:connector-curvature="0" />
      <path
         d="m 282.6489,114.1162 h 29.9777 v 5.1226 h -29.9777 z"
         style="fill:#edc02d;fill-rule:evenodd"
         id="path15"
         inkscape:connector-curvature="0" />
      <path
         d="m 282.6489,113.3317 h 29.9777 0.7844 v 0.7845 5.1226 0.7844 h -0.7844 -29.9777 -0.7844 v -0.7844 -5.1226 -0.7845 z m 29.1932,1.5689 h -28.4088 v 3.5537 h 28.4088 z"
         style="fill:#663333;fill-rule:evenodd"
         id="path17"
         inkscape:connector-curvature="0" />
      <path
         d="m 320.6071,152.537 0.0204,0.0195 h 6e-4 c 0.5254,-0.3789 1.1926,-0.5991 1.8964,-0.5464 1.7552,0.1311 3.4072,1.6831 3.1064,4.0493 -0.4203,3.304 -4.5269,4.3723 -7.0493,2.6484 -2.2772,-1.5557 -2.7646,-4.6709 -3.1372,-6.7589 -1.296,-9.7448 -2.4358,-17.7646 -3.7321,-27.5095 v -3e-4 l -0.001,-3e-4 c -0.4563,-0.0116 -0.9133,-0.0834 -1.3468,-0.2152 -2.2191,-0.6746 -3.4332,-2.8401 -3.2272,-4.9848 0.4206,-4.3714 5.4519,-6.3932 9.0655,-4.2939 2.7426,1.5917 3.6748,4.2148 3.6785,7.2196 z"
         style="fill:#edc02d;fill-rule:evenodd"
         id="path19"
         inkscape:connector-curvature="0" />
      <path
         d="m 320.5453,152.6427 -0.0203,-0.0194 -0.0361,-0.0342 -10e-4,-0.0492 -0.7257,-30.3726 v -0.003 c -0.002,-1.4855 -0.2328,-2.8762 -0.8008,-4.0891 -0.5661,-1.2085 -1.4698,-2.2448 -2.8185,-3.0274 -0.7763,-0.4507 -1.6191,-0.7082 -2.4656,-0.7894 -1.1379,-0.1095 -2.2853,0.0982 -3.2902,0.578 -1.0031,0.479 -1.8641,1.2299 -2.4321,2.2078 -0.3723,0.6415 -0.6198,1.3814 -0.6991,2.2056 -0.1032,1.0756 0.159,2.1564 0.7324,3.0415 0.541,0.8362 1.3609,1.499 2.4107,1.8183 0.2095,0.0636 0.4263,0.1135 0.6458,0.1483 0.2208,0.0352 0.4454,0.0559 0.6693,0.0615 l 0.017,6e-4 0.0175,0.006 10e-4,3e-4 0.0822,0.0276 v 0.0797 c 0.6433,4.8374 1.2527,9.2794 1.8612,13.7185 0.6085,4.4382 1.2176,8.8761 1.869,13.7766 l 0.0358,0.201 c 0.3657,2.0617 0.8879,5.0021 3.0509,6.4798 0.6063,0.4143 1.3079,0.6637 2.0259,0.7549 0.8148,0.1035 1.6517,0.004 2.3963,-0.2854 0.7414,-0.2882 1.3926,-0.7666 1.8399,-1.4215 0.3098,-0.4532 0.5231,-0.9924 0.6019,-1.6131 0.009,-0.0728 0.0169,-0.1493 0.0225,-0.2274 v -3e-4 c 0.0778,-1.0457 -0.2427,-1.9148 -0.7791,-2.5453 -0.5366,-0.6301 -1.2897,-1.0256 -2.0767,-1.126 v 3e-4 c -0.0539,-0.007 -0.1088,-0.0125 -0.1634,-0.0163 h -3e-4 c -0.3281,-0.0245 -0.6477,0.0125 -0.946,0.0985 -0.3168,0.0913 -0.6128,0.2387 -0.8719,0.4253 l -0.032,0.0229 h -0.0377 -6e-4 -0.0473 z m 0.1766,-0.2929 c 0.2393,-0.1502 0.5031,-0.2707 0.7826,-0.351 0.3256,-0.0938 0.6734,-0.1345 1.0288,-0.1079 0.0574,0.004 0.1163,0.0107 0.175,0.0176 l 6e-4,3e-4 c 0.8444,0.1073 1.6527,0.5316 2.2285,1.2082 0.5753,0.6762 0.919,1.604 0.8362,2.7172 -0.005,0.0756 -0.0138,0.1562 -0.0244,0.2402 -0.0838,0.6599 -0.3112,1.2342 -0.6415,1.7173 -0.4755,0.6963 -1.1658,1.2041 -1.9509,1.5093 -0.7816,0.3039 -1.6589,0.408 -2.5123,0.2998 -0.7544,-0.096 -1.4918,-0.3582 -2.1301,-0.7945 -2.2463,-1.5347 -2.7789,-4.5335 -3.1519,-6.6359 l -0.0357,-0.2011 -6e-4,-0.005 c -0.6465,-4.861 -1.2581,-9.3205 -1.8697,-13.7803 -0.6019,-4.3918 -1.2048,-8.7848 -1.8493,-13.6295 -0.2004,-0.009 -0.4015,-0.0298 -0.6,-0.0611 -0.2284,-0.0364 -0.4558,-0.0888 -0.6772,-0.1559 -1.1072,-0.3366 -1.9713,-1.0351 -2.5412,-1.9161 -0.6025,-0.9306 -0.8786,-2.0654 -0.77,-3.1939 0.0828,-0.8613 0.3412,-1.6335 0.7298,-2.3029 0.5931,-1.0212 1.4908,-1.805 2.5356,-2.3038 1.0426,-0.4977 2.2338,-0.7129 3.4157,-0.5993 0.8804,0.0846 1.7564,0.3522 2.5628,0.8202 1.3936,0.8086 2.328,1.8809 2.9145,3.1327 0.5837,1.2465 0.8211,2.6698 0.8233,4.1873 z"
         style="fill:#663333;fill-rule:evenodd"
         id="path21"
         inkscape:connector-curvature="0" />
      <path
         d="m 311.7126,119.7996 c -0.027,0.4312 -0.3987,0.759 -0.83,0.732 -0.4312,-0.0269 -0.759,-0.3986 -0.732,-0.8299 0.005,-0.0753 0.0141,-0.1625 0.0263,-0.2578 l 3e-4,-0.003 h -3e-4 c 0.1286,-0.9683 0.5941,-1.6687 1.2176,-2.1175 0.6129,-0.441 1.3691,-0.6264 2.0977,-0.579 0.0684,0.004 0.1462,0.0125 0.2296,0.0235 0.3413,0.0452 0.6553,0.1299 0.9404,0.2472 0.8948,0.3676 1.5067,1.0451 1.8609,1.8587 0.3349,0.77 0.4341,1.663 0.3205,2.5192 -0.058,0.4379 -0.1719,0.8692 -0.3368,1.271 -0.4536,1.1031 -1.3488,1.8427 -2.4133,2.2332 -1.1163,0.4086 -2.4327,0.4287 -3.5998,0.0737 -1.2662,-0.3852 -2.2536,-1.1831 -2.9047,-2.189 -0.6832,-1.0551 -0.9962,-2.3402 -0.8735,-3.6167 0.0925,-0.962 0.381,-1.8252 0.8155,-2.5729 0.6636,-1.1427 1.6633,-2.0171 2.8238,-2.5714 1.147,-0.5476 2.4593,-0.7844 3.7632,-0.6589 0.9742,0.0934 1.9431,0.3892 2.8329,0.9058 1.5187,0.8814 2.5393,2.0544 3.182,3.426 0.6257,1.3365 0.8817,2.8483 0.8854,4.452 l 0.7258,30.3725 c 0.0101,0.4313 -0.3312,0.7895 -0.7625,0.7995 -0.4312,0.0101 -0.7894,-0.3312 -0.7995,-0.7624 l -0.7258,-30.3726 h 4e-4 l -4e-4,-0.0185 c -0.002,-1.3932 -0.2148,-2.6899 -0.7386,-3.8087 -0.51,-1.0887 -1.328,-2.0243 -2.5509,-2.7341 -0.692,-0.4018 -1.4432,-0.6317 -2.1956,-0.7038 -1.0162,-0.0976 -2.0422,0.0884 -2.9427,0.5184 -0.8873,0.4235 -1.6464,1.084 -2.1438,1.9403 -0.3268,0.5627 -0.5439,1.212 -0.6135,1.9355 -0.0891,0.9272 0.1361,1.8581 0.6289,2.6187 0.4598,0.7108 1.1564,1.2747 2.0472,1.5454 0.849,0.2581 1.8028,0.2453 2.6074,-0.0492 0.6749,-0.2475 1.2354,-0.6985 1.5061,-1.3569 0.1136,-0.277 0.1926,-0.5756 0.2327,-0.8789 0.0781,-0.5877 0.0154,-1.1887 -0.2038,-1.6924 -0.1998,-0.4595 -0.537,-0.8384 -1.0216,-1.0376 -0.1637,-0.0671 -0.3469,-0.1164 -0.5483,-0.143 -0.0338,-0.004 -0.0759,-0.008 -0.1254,-0.0116 -0.3893,-0.0251 -0.7829,0.0658 -1.0871,0.2848 -0.2933,0.2111 -0.5147,0.557 -0.5803,1.0517 h -3e-4 c -0.005,0.0392 -0.01,0.0915 -0.0141,0.1565 z"
         style="fill:#663333;fill-rule:evenodd"
         id="path23"
         inkscape:connector-curvature="0" />
      <path
         d="m 311.2932,124.5404 c -0.0555,-0.4278 0.2462,-0.8205 0.6741,-0.876 0.4278,-0.0555 0.8205,0.2462 0.876,0.674 0.6323,4.7547 1.2483,9.2431 1.8625,13.7255 0.6022,4.3895 1.2041,8.78 1.8653,13.7505 l 10e-4,-3e-4 0.0358,0.201 c 0.3456,1.9478 0.839,4.7268 2.7705,6.0463 0.5184,0.3541 1.1194,0.5677 1.7351,0.6458 0.706,0.0897 1.4305,0.004 2.0745,-0.2462 0.6194,-0.2409 1.1617,-0.6373 1.5309,-1.1774 0.2534,-0.3711 0.4282,-0.8133 0.4928,-1.3224 0.005,-0.0439 0.0116,-0.1079 0.0175,-0.191 l 3e-4,-0.003 h -3e-4 c 0.064,-0.8587 -0.1919,-1.5632 -0.6213,-2.0676 -0.4269,-0.5015 -1.0263,-0.8164 -1.653,-0.897 l -3e-4,0.002 c -0.053,-0.006 -0.0997,-0.0119 -0.1295,-0.0138 l -0.003,-3e-4 v 3e-4 c -0.4845,-0.0361 -0.9469,0.1066 -1.3201,0.3569 -0.297,0.1992 -0.5357,0.4627 -0.6819,0.7534 -0.1333,0.2657 -0.1888,0.5549 -0.1374,0.8331 0.0477,0.2575 0.1939,0.5235 0.4627,0.7741 0.1696,0.1104 0.3892,0.1449 0.6091,0.1201 0.1527,-0.0172 0.302,-0.0636 0.4319,-0.133 0.1192,-0.0636 0.2214,-0.1461 0.292,-0.2402 0.0718,-0.096 0.1104,-0.2133 0.0956,-0.3438 -0.047,-0.4294 0.2629,-0.8164 0.6923,-0.8635 0.4294,-0.047 0.8164,0.2629 0.8635,0.6923 0.0627,0.5539 -0.0992,1.0485 -0.4018,1.4522 -0.2105,0.281 -0.4906,0.5125 -0.8064,0.6812 -0.3058,0.1634 -0.6487,0.271 -0.9959,0.3105 -0.5815,0.0662 -1.1928,-0.0542 -1.7003,-0.4127 -0.0392,-0.0245 -0.0765,-0.0527 -0.1116,-0.0847 -0.5521,-0.5015 -0.8591,-1.0793 -0.9686,-1.6708 -0.1157,-0.6273 -0.003,-1.254 0.2779,-1.813 0.2682,-0.5335 0.691,-1.0065 1.2088,-1.3537 0.6499,-0.436 1.4572,-0.6837 2.3069,-0.6204 v 3e-4 c 0.0809,0.006 0.1474,0.0126 0.2061,0.0198 l -3e-4,0.002 0.003,3e-4 c 1.0037,0.1277 1.9641,0.6323 2.6488,1.4369 0.6828,0.802 1.0915,1.8941 0.9946,3.1948 h -3e-4 c -0.005,0.07 -0.0154,0.1619 -0.0292,0.2738 -0.0981,0.7713 -0.3638,1.4428 -0.7499,2.008 -0.5545,0.8115 -1.354,1.4008 -2.2605,1.7534 -0.8823,0.3431 -1.8719,0.461 -2.8342,0.3384 -0.8569,-0.1085 -1.6946,-0.4071 -2.4207,-0.903 -2.4779,-1.6928 -3.0393,-4.8535 -3.4323,-7.0694 l -0.0358,-0.2011 0.002,-3e-4 -0.005,-0.0336 c -0.6355,-4.7791 -1.2528,-9.2778 -1.8697,-13.7778 -0.6003,-4.3814 -1.2016,-8.7609 -1.8625,-13.7317 z"
         style="fill:#663333;fill-rule:evenodd"
         id="path25"
         inkscape:connector-curvature="0" />
      <path
         d="m 315.5438,126.5927 c -0.032,-0.4313 0.2914,-0.8074 0.7227,-0.8394 0.4313,-0.032 0.8073,0.2914 0.8393,0.7227 l 1.8258,23.4025 c 0.032,0.4313 -0.2914,0.8074 -0.7227,0.8394 -0.4312,0.032 -0.8073,-0.2914 -0.8393,-0.7227 z"
         style="fill:#663333;fill-rule:evenodd"
         id="path27"
         inkscape:connector-curvature="0" />
      <path
         d="m 286.2054,114.1162 h 22.8647 v 2.5613 h -22.8647 z"
         style="fill:#663333;fill-rule:evenodd"
         id="path29"
         inkscape:connector-curvature="0" />
      <path
         d="m 283.5406,150.3085 c -0.4328,0 -0.7841,-0.3512 -0.7841,-0.7841 0,-0.4328 0.3513,-0.7841 0.7841,-0.7841 h 19.0306 c 0.4328,0 0.7841,0.3513 0.7841,0.7841 0,0.4329 -0.3513,0.7841 -0.7841,0.7841 z m 22.4331,0 c -0.4329,0 -0.7842,-0.3512 -0.7842,-0.7841 0,-0.4328 0.3513,-0.7841 0.7842,-0.7841 h 5.7611 c 0.4329,0 0.7842,0.3513 0.7842,0.7841 0,0.4329 -0.3513,0.7841 -0.7842,0.7841 z"
         style="fill:#663333;fill-rule:evenodd"
         id="path31"
         inkscape:connector-curvature="0" />
      <path
         d="m 286.8167,146.455 c -0.4331,0 -0.7844,-0.3513 -0.7844,-0.7844 0,-0.4332 0.3513,-0.7845 0.7844,-0.7845 h 4.4727 c 0.4332,0 0.7844,0.3513 0.7844,0.7845 0,0.4331 -0.3512,0.7844 -0.7844,0.7844 z m 7.507,0 c -0.4332,0 -0.7845,-0.3513 -0.7845,-0.7844 0,-0.4332 0.3513,-0.7845 0.7845,-0.7845 h 14.135 c 0.4332,0 0.7845,0.3513 0.7845,0.7845 0,0.4331 -0.3513,0.7844 -0.7845,0.7844 z"
         style="fill:#663333;fill-rule:evenodd"
         id="path33"
         inkscape:connector-curvature="0" />
      <path
         d="m 282.222,154.9741 c -0.4284,0 -0.7763,-0.3513 -0.7763,-0.7841 0,-0.4328 0.3479,-0.7841 0.7763,-0.7841 h 9.0624 c 0.4284,0 0.7763,0.3513 0.7763,0.7841 0,0.4328 -0.3479,0.7841 -0.7763,0.7841 z m 13.3786,0 c -0.4285,0 -0.7763,-0.3513 -0.7763,-0.7841 0,-0.4328 0.3478,-0.7841 0.7763,-0.7841 h 17.4528 c 0.4285,0 0.7763,0.3513 0.7763,0.7841 0,0.4328 -0.3478,0.7841 -0.7763,0.7841 z"
         style="fill:#663333;fill-rule:evenodd"
         id="path35"
         inkscape:connector-curvature="0" />
      <path
         d="m 280.4317,160.3075 c -0.4332,0 -0.7848,-0.3516 -0.7848,-0.7848 0,-0.4331 0.3516,-0.7847 0.7848,-0.7847 h 5.2129 c 0.4332,0 0.7848,0.3516 0.7848,0.7847 0,0.4332 -0.3516,0.7848 -0.7848,0.7848 z m 9.1966,0 c -0.4332,0 -0.7848,-0.3516 -0.7848,-0.7848 0,-0.4331 0.3516,-0.7847 0.7848,-0.7847 h 17.2957 c 0.4332,0 0.7848,0.3516 0.7848,0.7847 0,0.4332 -0.3516,0.7848 -0.7848,0.7848 z m 20.532,0 c -0.4331,0 -0.7848,-0.3516 -0.7848,-0.7848 0,-0.4331 0.3517,-0.7847 0.7848,-0.7847 h 4.6832 c 0.4331,0 0.7847,0.3516 0.7847,0.7847 0,0.4332 -0.3516,0.7848 -0.7847,0.7848 z"
         style="fill:#663333;fill-rule:evenodd"
         id="path37"
         inkscape:connector-curvature="0" />
      <path
         d="m 226.1651,160.3097 c -0.4344,0 -0.787,-0.3526 -0.787,-0.787 0,-0.4344 0.3526,-0.7869 0.787,-0.7869 h 41.1048 c 0.4344,0 0.7869,0.3525 0.7869,0.7869 0,0.4344 -0.3525,0.787 -0.7869,0.787 z"
         style="fill:#663333;fill-rule:evenodd"
         id="path39"
         inkscape:connector-curvature="0" />
      <path
         d="m 259.4894,154.9782 c -0.4306,0 -0.78,-0.3532 -0.78,-0.7882 0,-0.435 0.3494,-0.7882 0.78,-0.7882 h 6.5133 c 0.4307,0 0.7801,0.3532 0.7801,0.7882 0,0.435 -0.3494,0.7882 -0.7801,0.7882 z"
         style="fill:#663333;fill-rule:evenodd"
         id="path41"
         inkscape:connector-curvature="0" />
      <path
         d="m 369.4849,158.7348 c 0.435,0 0.7879,0.3529 0.7879,0.7879 0,0.4351 -0.3529,0.7879 -0.7879,0.7879 H 328.333 c -0.435,0 -0.7879,-0.3528 -0.7879,-0.7879 0,-0.435 0.3529,-0.7879 0.7879,-0.7879 z"
         style="fill:#663333;fill-rule:evenodd"
         id="path43"
         inkscape:connector-curvature="0" />
      <path
         d="m 336.1135,153.4018 c 0.4306,0 0.78,0.3532 0.78,0.7882 0,0.435 -0.3494,0.7882 -0.78,0.7882 h -6.5133 c -0.4307,0 -0.7801,-0.3532 -0.7801,-0.7882 0,-0.435 0.3494,-0.7882 0.7801,-0.7882 z"
         style="fill:#663333;fill-rule:evenodd"
         id="path45"
         inkscape:connector-curvature="0" />
      <path
         d="m 328.4466,148.7481 c 0.4328,0 0.7841,0.3479 0.7841,0.7763 0,0.4285 -0.3513,0.7763 -0.7841,0.7763 h -3.6927 c -0.4328,0 -0.7841,-0.3478 -0.7841,-0.7763 0,-0.4284 0.3513,-0.7763 0.7841,-0.7763 z"
         style="fill:#663333;fill-rule:evenodd"
         id="path47"
         inkscape:connector-curvature="0" />
      <path
         d="m 270.5212,148.7481 c 0.4329,0 0.7841,0.3479 0.7841,0.7763 0,0.4285 -0.3512,0.7763 -0.7841,0.7763 h -3.6926 c -0.4329,0 -0.7841,-0.3478 -0.7841,-0.7763 0,-0.4284 0.3512,-0.7763 0.7841,-0.7763 z"
         style="fill:#663333;fill-rule:evenodd"
         id="path49"
         inkscape:connector-curvature="0" />
      <path
         d="m 274.668,152.537 -0.0204,0.0195 h -6e-4 c -0.5254,-0.3789 -1.1925,-0.5991 -1.8963,-0.5464 -1.7552,0.1311 -3.4073,1.6831 -3.1065,4.0493 0.4203,3.304 4.527,4.3723 7.0494,2.6484 2.2771,-1.5557 2.7645,-4.6709 3.1371,-6.7589 1.296,-9.7448 2.4359,-17.7646 3.7322,-27.5095 v -3e-4 l 9e-4,-3e-4 c 0.4564,-0.0116 0.9134,-0.0834 1.3469,-0.2152 2.219,-0.6746 3.4332,-2.8401 3.2271,-4.9848 -0.4206,-4.3714 -5.4519,-6.3932 -9.0655,-4.2939 -2.7426,1.5917 -3.6747,4.2148 -3.6785,7.2196 z"
         style="fill:#edc02d;fill-rule:evenodd"
         id="path51"
         inkscape:connector-curvature="0" />
      <path
         d="m 285.1246,119.7017 c 0.0269,0.4313 -0.3008,0.803 -0.7321,0.8299 -0.4313,0.027 -0.803,-0.3008 -0.8299,-0.732 -0.004,-0.065 -0.009,-0.1173 -0.0141,-0.1565 h -4e-4 c -0.0655,-0.4947 -0.2869,-0.8406 -0.5802,-1.0517 -0.3043,-0.219 -0.6979,-0.3099 -1.0871,-0.2848 -0.0496,0.003 -0.0916,0.007 -0.1255,0.0116 -0.2014,0.0266 -0.3845,0.0759 -0.5483,0.143 -0.4846,0.1992 -0.8217,0.5781 -1.0215,1.0376 -0.2193,0.5037 -0.282,1.1047 -0.2039,1.6924 0.0401,0.3033 0.1192,0.6019 0.2327,0.8789 0.2707,0.6584 0.8312,1.1094 1.5062,1.3569 0.8045,0.2945 1.7583,0.3073 2.6074,0.0492 0.8908,-0.2707 1.5874,-0.8346 2.0472,-1.5454 0.4927,-0.7606 0.7179,-1.6915 0.6289,-2.6187 -0.0697,-0.7235 -0.2867,-1.3728 -0.6135,-1.9355 -0.4975,-0.8563 -1.2565,-1.5168 -2.1439,-1.9403 -0.9004,-0.43 -1.9264,-0.616 -2.9426,-0.5184 -0.7525,0.0721 -1.5037,0.302 -2.1956,0.7038 -1.2229,0.7098 -2.0409,1.6454 -2.5509,2.7341 -0.5238,1.1188 -0.7371,2.4155 -0.7387,3.8087 l -3e-4,0.0185 h 3e-4 l -0.7258,30.3726 c -0.01,0.4312 -0.3682,0.7725 -0.7995,0.7624 -0.4313,-0.01 -0.7725,-0.3682 -0.7625,-0.7995 l 0.7258,-30.3725 c 0.004,-1.6037 0.2597,-3.1155 0.8855,-4.452 0.6426,-1.3716 1.6633,-2.5446 3.182,-3.426 0.8898,-0.5166 1.8587,-0.8124 2.8329,-0.9058 1.3038,-0.1255 2.6161,0.1113 3.7632,0.6589 1.1605,0.5543 2.1601,1.4287 2.8238,2.5714 0.4344,0.7477 0.723,1.6109 0.8155,2.5729 0.1226,1.2765 -0.1904,2.5616 -0.8735,3.6167 -0.6512,1.0059 -1.6386,1.8038 -2.9048,2.189 -1.1671,0.355 -2.4835,0.3349 -3.5998,-0.0737 -1.0645,-0.3905 -1.9597,-1.1301 -2.4132,-2.2332 -0.165,-0.4018 -0.2788,-0.8331 -0.3369,-1.271 -0.1135,-0.8562 -0.0144,-1.7492 0.3206,-2.5192 0.3541,-0.8136 0.966,-1.4911 1.8609,-1.8587 0.2851,-0.1173 0.5991,-0.202 0.9403,-0.2472 0.0834,-0.011 0.1612,-0.0194 0.2296,-0.0235 0.7286,-0.0474 1.4848,0.138 2.0977,0.579 0.6236,0.4488 1.089,1.1492 1.2176,2.1175 h -3e-4 l 3e-4,0.003 c 0.0122,0.0953 0.0217,0.1825 0.0264,0.2578 z"
         style="fill:#663333;fill-rule:evenodd"
         id="path53"
         inkscape:connector-curvature="0" />
      <path
         d="m 282.4319,124.3384 c 0.0555,-0.4278 0.4482,-0.7295 0.876,-0.674 0.4278,0.0555 0.7295,0.4482 0.674,0.876 -0.6608,4.9708 -1.2621,9.3503 -1.8624,13.7317 -0.617,4.5 -1.2343,8.9987 -1.8697,13.7778 l -0.005,0.0336 0.002,3e-4 -0.0357,0.2011 c -0.393,2.2159 -0.9545,5.3766 -3.4323,7.0694 -0.7261,0.4959 -1.5639,0.7945 -2.4208,0.903 -0.9623,0.1226 -1.9518,0.005 -2.8342,-0.3384 -0.9064,-0.3526 -1.7059,-0.9419 -2.2604,-1.7534 -0.3862,-0.5652 -0.6518,-1.2367 -0.75,-2.008 -0.0138,-0.1119 -0.0241,-0.2038 -0.0292,-0.2738 h -3e-4 c -0.0969,-1.3007 0.3118,-2.3928 0.9946,-3.1948 0.6847,-0.8046 1.6451,-1.3092 2.6488,-1.4369 l 0.004,-3e-4 -3e-4,-0.002 c 0.0586,-0.007 0.1251,-0.0141 0.206,-0.0198 v -3e-4 c 0.8497,-0.0633 1.657,0.1844 2.3069,0.6204 0.5179,0.3472 0.9407,0.8202 1.2089,1.3537 0.2807,0.559 0.3936,1.1857 0.2778,1.813 -0.1094,0.5915 -0.4165,1.1693 -0.9685,1.6708 -0.0351,0.032 -0.0725,0.0602 -0.1117,0.0847 -0.5075,0.3585 -1.1188,0.4789 -1.7003,0.4127 -0.3472,-0.0395 -0.69,-0.1471 -0.9958,-0.3105 -0.3159,-0.1687 -0.596,-0.4002 -0.8064,-0.6812 -0.3027,-0.4037 -0.4645,-0.8983 -0.4018,-1.4522 0.047,-0.4294 0.4341,-0.7393 0.8635,-0.6923 0.4294,0.0471 0.7392,0.4341 0.6922,0.8635 -0.0147,0.1305 0.0238,0.2478 0.0957,0.3438 0.0705,0.0941 0.1728,0.1766 0.292,0.2402 0.1298,0.0694 0.2791,0.1158 0.4319,0.133 0.2198,0.0248 0.4394,-0.01 0.6091,-0.1201 0.2688,-0.2506 0.4149,-0.5166 0.4626,-0.7741 0.0515,-0.2782 -0.004,-0.5674 -0.1374,-0.8331 -0.1461,-0.2907 -0.3848,-0.5542 -0.6818,-0.7534 -0.3733,-0.2503 -0.8356,-0.393 -1.3202,-0.3569 v -3e-4 l -0.003,3e-4 c -0.0298,0.002 -0.0766,0.007 -0.1296,0.0138 l -3e-4,-0.002 c -0.6267,0.0806 -1.2261,0.3955 -1.6529,0.897 -0.4294,0.5044 -0.6854,1.2089 -0.6214,2.0676 h -3e-4 l 3e-4,0.003 c 0.006,0.0831 0.0122,0.1471 0.0176,0.191 0.0646,0.5091 0.2393,0.9513 0.4927,1.3224 0.3692,0.5401 0.9115,0.9365 1.531,1.1774 0.6439,0.2503 1.3684,0.3359 2.0745,0.2462 0.6157,-0.0781 1.2166,-0.2917 1.7351,-0.6458 1.9315,-1.3195 2.4248,-4.0985 2.7705,-6.0463 l 0.0357,-0.201 0.001,3e-4 c 0.6612,-4.9705 1.2631,-9.361 1.8653,-13.7505 0.6141,-4.4824 1.2301,-8.9708 1.8625,-13.7255 z"
         style="fill:#663333;fill-rule:evenodd"
         id="path55"
         inkscape:connector-curvature="0" />
      <path
         d="m 278.1693,126.476 c 0.032,-0.4313 0.4081,-0.7547 0.8394,-0.7227 0.4312,0.032 0.7546,0.4081 0.7226,0.8394 l -1.8258,23.4025 c -0.032,0.4313 -0.408,0.7547 -0.8393,0.7227 -0.4313,-0.032 -0.7546,-0.4081 -0.7227,-0.8394 z"
         style="fill:#663333;fill-rule:evenodd"
         id="path57"
         inkscape:connector-curvature="0" />
      <path
         d="m 228.4447,181.2513 1.5002,-0.611 c 0.0916,-0.0373 0.1697,-0.0881 0.2306,-0.1493 0.0611,-0.0611 0.0919,-0.1593 0.0919,-0.2951 v -9.6527 c 0,-0.1258 -0.0342,-0.2139 -0.0985,-0.2716 -0.0646,-0.0543 -0.1393,-0.1016 -0.224,-0.139 l -1.5002,-0.611 v -0.8553 h 15.3003 v 0.8553 l -1.4798,0.611 c -0.095,0.0374 -0.1766,0.0847 -0.2478,0.139 -0.0712,0.0577 -0.1054,0.1458 -0.1054,0.2716 v 9.6527 c 0,0.1358 0.0342,0.2308 0.102,0.2917 0.068,0.0577 0.1493,0.1088 0.2512,0.1527 l 1.4798,0.611 v 0.8553 h -6.8593 v -0.8553 l 1.4799,-0.611 c 0.1119,-0.0508 0.2001,-0.1016 0.2612,-0.1593 0.0612,-0.0543 0.0916,-0.1493 0.0916,-0.2851 v -9.9005 h -5.2574 v 9.9005 c 0,0.1358 0.0307,0.2308 0.0916,0.2917 0.0611,0.0577 0.1461,0.1088 0.2512,0.1527 l 1.4902,0.611 v 0.8553 h -6.8493 z m 22.9845,0 1.5002,-0.611 c 0.1016,-0.0439 0.1832,-0.095 0.2374,-0.1527 0.0577,-0.0609 0.085,-0.1559 0.085,-0.2917 v -9.6527 c 0,-0.1258 -0.0307,-0.2139 -0.0919,-0.2716 -0.0608,-0.0543 -0.1389,-0.1016 -0.2305,-0.139 l -1.5002,-0.611 v -0.8553 h 6.8492 c 0.7227,0 1.3983,0.0747 2.0328,0.2205 0.6314,0.1493 1.1812,0.3802 1.6495,0.696 0.4717,0.3121 0.8418,0.7195 1.1135,1.2148 0.2713,0.4956 0.4071,1.0931 0.4071,1.7887 0,0.7331 -0.1189,1.3952 -0.3529,1.9789 -0.2343,0.5871 -0.5602,1.0827 -0.9811,1.4898 -0.4206,0.4075 -0.9196,0.7195 -1.4999,0.9369 -0.5805,0.2205 -1.2151,0.329 -1.9076,0.329 -0.1593,0 -0.3428,-0.0169 -0.5464,-0.0508 -0.2035,-0.0339 -0.4074,-0.0815 -0.6144,-0.1424 -0.207,-0.0611 -0.4106,-0.1323 -0.6107,-0.2173 -0.2004,-0.0816 -0.3736,-0.1697 -0.5229,-0.2613 v 3.5433 c 0,0.1358 0.0339,0.2343 0.1054,0.3021 0.0712,0.0646 0.1493,0.1119 0.2375,0.1427 l 1.5648,0.6141 v 0.8553 h -6.9239 z m 6.5233,-5.6815 c 0.3087,0 0.5768,-0.0442 0.8077,-0.1324 0.2274,-0.0915 0.4209,-0.207 0.5837,-0.3497 0.1596,-0.1389 0.2886,-0.302 0.3905,-0.4817 0.1016,-0.1835 0.1832,-0.3667 0.2374,-0.5568 0.0543,-0.1866 0.0951,-0.3666 0.1154,-0.5398 0.0204,-0.1728 0.0339,-0.3224 0.0339,-0.4548 0,-0.3494 -0.0439,-0.6853 -0.1254,-1.0112 -0.085,-0.3224 -0.2274,-0.6075 -0.4275,-0.8519 -0.2005,-0.2478 -0.4686,-0.4447 -0.808,-0.594 -0.3394,-0.1459 -0.7638,-0.2205 -1.2694,-0.2205 h -1.0454 v 5.0366 c 0.085,0.0238 0.1901,0.0442 0.3159,0.0646 0.122,0.017 0.2509,0.0339 0.3867,0.0508 0.1358,0.0135 0.2751,0.0239 0.414,0.0305 0.1358,0.007 0.2682,0.0103 0.3905,0.0103 z m 13.0367,5.6815 1.5002,-0.611 c 0.0916,-0.0373 0.1697,-0.0881 0.2305,-0.1493 0.0612,-0.0611 0.0919,-0.1593 0.0919,-0.2951 v -9.6527 c 0,-0.1258 -0.0342,-0.2173 -0.0985,-0.2751 -0.0646,-0.0577 -0.1392,-0.105 -0.2239,-0.1355 l -1.5002,-0.611 v -0.8553 h 11.9197 v 3.8692 h -1.4152 l -0.4617,-1.7853 c -0.0304,-0.1189 -0.0781,-0.207 -0.1424,-0.2647 -0.068,-0.0577 -0.1527,-0.0881 -0.2547,-0.0881 h -4.6295 v 3.9096 h 2.4437 c 0.1292,0 0.2174,-0.0269 0.2647,-0.0781 0.0442,-0.0542 0.0885,-0.1424 0.1324,-0.2713 l 0.4651,-1.4425 h 1.164 v 5.2133 h -1.164 l -0.4651,-1.4325 c -0.0304,-0.1051 -0.0712,-0.1901 -0.1255,-0.2578 -0.0508,-0.0678 -0.1424,-0.1019 -0.2716,-0.1019 h -2.4437 v 4.4394 h 5.3221 c 0.0881,0 0.1662,-0.0339 0.2409,-0.1016 0.0746,-0.0681 0.122,-0.1528 0.1493,-0.2582 l 0.4717,-1.9819 h 1.4052 v 4.0727 h -12.6054 z m 27.305,1.1405 c -1.0489,0 -2.0024,-0.1597 -2.8611,-0.4752 -0.8588,-0.319 -1.5918,-0.7773 -2.2028,-1.3745 -0.611,-0.6009 -1.0827,-1.3305 -1.4152,-2.1962 -0.3363,-0.8619 -0.5025,-1.8395 -0.5025,-2.9323 0,-0.7161 0.0781,-1.3848 0.2378,-2.0127 0.1558,-0.6245 0.3832,-1.1982 0.6753,-1.7207 0.292,-0.5229 0.6483,-0.9842 1.0692,-1.3917 0.4206,-0.4071 0.8892,-0.7534 1.4117,-1.0385 0.5195,-0.2816 1.0862,-0.499 1.6972,-0.6483 0.6107,-0.1458 1.259,-0.2205 1.9447,-0.2205 0.3701,0 0.7772,0.0238 1.222,0.0678 0.4444,0.0476 0.8857,0.1053 1.327,0.1765 0.441,0.0712 0.8619,0.1459 1.259,0.2205 0.4006,0.0781 0.7365,0.1462 1.015,0.2105 v 3.7845 h -1.3983 l -0.472,-1.7887 c -0.0169,-0.0712 -0.0778,-0.1493 -0.1763,-0.2309 -0.0985,-0.0781 -0.18,-0.1358 -0.2478,-0.1731 -0.3158,-0.1731 -0.6383,-0.319 -0.9638,-0.4379 -0.3259,-0.1185 -0.6995,-0.1797 -1.1201,-0.1797 -0.611,0 -1.1677,0.1019 -1.6664,0.3021 -0.499,0.2001 -0.9269,0.5056 -1.2763,0.913 -0.3531,0.4106 -0.6244,0.9265 -0.8145,1.5476 -0.1935,0.6179 -0.2886,1.344 -0.2886,2.1789 0,0.8688 0.1054,1.636 0.3156,2.2978 0.2104,0.6618 0.5093,1.2186 0.8961,1.6665 0.3905,0.4447 0.8622,0.7841 1.412,1.0115 0.5533,0.2274 1.1743,0.3428 1.8666,0.3428 0.4074,0 0.7841,-0.0442 1.1335,-0.1358 0.3497,-0.0881 0.6653,-0.197 0.9538,-0.3259 0.2851,-0.1289 0.5433,-0.2682 0.7672,-0.4175 0.2274,-0.1458 0.4175,-0.2816 0.5803,-0.4039 h 0.7502 v 1.3678 c -0.2716,0.2208 -0.594,0.4513 -0.9673,0.6891 -0.3735,0.2374 -0.7806,0.4548 -1.222,0.6518 -0.4413,0.1966 -0.913,0.3597 -1.4086,0.4852 -0.4955,0.1254 -1.0081,0.1901 -1.5306,0.1901 z m 15.3006,-1.1405 1.5714,-0.611 c 0.1051,-0.0439 0.1866,-0.095 0.2478,-0.1527 0.0577,-0.0609 0.0847,-0.1559 0.0847,-0.2917 v -9.8393 h -2.7015 c -0.1054,0 -0.1901,0.0304 -0.2547,0.0881 -0.0646,0.0577 -0.112,0.1459 -0.1424,0.2613 l -0.4651,1.9923 h -1.3949 v -4.032 h 13.1245 v 4.032 h -1.4083 l -0.4617,-1.9923 c -0.0304,-0.1085 -0.0815,-0.1967 -0.1527,-0.2578 -0.0712,-0.0612 -0.1493,-0.0916 -0.2375,-0.0916 h -2.7018 v 9.8393 c 0,0.1358 0.0339,0.234 0.102,0.302 0.0677,0.0643 0.1458,0.112 0.2308,0.1424 l 1.5749,0.611 v 0.8553 h -7.0155 z m 24.1861,1.1608 c -1.117,0 -2.1046,-0.1596 -2.9666,-0.482 -0.8622,-0.319 -1.5848,-0.7839 -2.1755,-1.3914 -0.5906,-0.6076 -1.0353,-1.3475 -1.3374,-2.2163 -0.302,-0.8722 -0.4548,-1.8568 -0.4548,-2.953 0,-1.0316 0.1597,-1.9754 0.4718,-2.8339 0.3158,-0.8587 0.7741,-1.5952 1.3713,-2.2162 0.5975,-0.6214 1.327,-1.1032 2.1892,-1.446 0.862,-0.3428 1.8327,-0.5125 2.9189,-0.5125 1.1878,0 2.2128,0.1766 3.0782,0.526 0.8688,0.3532 1.5883,0.8419 2.1585,1.4629 0.5703,0.6245 0.9946,1.3644 1.2728,2.2232 0.2786,0.8587 0.4141,1.7884 0.4141,2.7965 0,0.5975 -0.0577,1.1881 -0.1729,1.7718 -0.1188,0.5837 -0.2989,1.1335 -0.5398,1.6564 -0.2374,0.5226 -0.5463,1.0012 -0.923,1.4422 -0.3767,0.4413 -0.8215,0.8249 -1.334,1.1439 -0.5125,0.3224 -1.0997,0.5736 -1.758,0.7568 -0.6618,0.1801 -1.3983,0.2716 -2.2128,0.2716 z m 0.1389,-1.6291 c 0.5602,0 1.0523,-0.1223 1.4729,-0.3666 0.4175,-0.2444 0.7672,-0.5872 1.0454,-1.0316 0.2786,-0.4448 0.4856,-0.9811 0.6245,-1.6091 0.1393,-0.6245 0.207,-1.3236 0.207,-2.0974 0,-0.8892 -0.0712,-1.6833 -0.217,-2.3859 -0.1459,-0.6992 -0.3667,-1.2932 -0.6653,-1.7784 -0.2986,-0.4821 -0.6787,-0.8554 -1.1335,-1.1135 -0.4583,-0.2613 -0.9981,-0.3902 -1.6225,-0.3902 -0.5972,0 -1.1063,0.1324 -1.5272,0.3937 -0.4175,0.2612 -0.7638,0.621 -1.0319,1.0758 -0.2682,0.4516 -0.4649,0.9877 -0.5872,1.6021 -0.122,0.6145 -0.1832,1.2728 -0.1832,1.9754 0,0.8858 0.0678,1.6765 0.2105,2.3825 0.1424,0.7026 0.3632,1.3032 0.6583,1.8023 0.2955,0.4955 0.6722,0.8757 1.1235,1.1438 0.4548,0.2648 0.9943,0.3971 1.6257,0.3971 z m 15.273,1.4864 c -0.1186,0 -0.2544,0 -0.414,-0.003 -0.1559,-0.004 -0.3224,-0.0104 -0.4956,-0.0204 -0.1728,-0.0103 -0.3425,-0.0204 -0.509,-0.0307 -0.1663,-0.0135 -0.3156,-0.027 -0.4514,-0.0474 v -2.7695 h 0.6279 c 0.1359,0 0.2886,0.003 0.4583,0.0134 0.1697,0.0104 0.3325,0.0239 0.4852,0.0374 0.1562,0.0169 0.292,0.0273 0.414,0.0373 0.1189,0.0103 0.197,0.0135 0.2343,0.0135 0.2547,0 0.5025,-0.1324 0.7468,-0.3971 0.2444,-0.2679 0.4752,-0.6245 0.6992,-1.0724 0.2205,-0.4479 0.424,-0.9673 0.611,-1.5579 0.1831,-0.5906 0.3428,-1.2047 0.4783,-1.8462 0.1358,-0.6382 0.2443,-1.2866 0.3224,-1.9415 0.0747,-0.6552 0.1154,-1.2762 0.1154,-1.8565 0,-0.2478 -0.0338,-0.414 -0.0984,-0.499 -0.0643,-0.0881 -0.1459,-0.1527 -0.2444,-0.1967 l -1.5002,-0.611 v -0.8553 h 12.1541 v 0.8553 l -1.483,0.611 c -0.0916,0.0374 -0.1731,0.0847 -0.2443,0.139 -0.0715,0.0577 -0.1054,0.1458 -0.1054,0.2716 v 9.6527 c 0,0.1358 0.0339,0.2308 0.1019,0.2917 0.0678,0.0577 0.1493,0.1088 0.2478,0.1527 l 1.483,0.611 v 0.8553 h -6.8593 v -0.8553 l 1.4798,-0.611 c 0.112,-0.0508 0.197,-0.1016 0.2613,-0.1593 0.0611,-0.0543 0.0919,-0.1493 0.0919,-0.2851 v -9.9005 h -3.3332 c -0.0169,1.0724 -0.0982,2.1144 -0.2409,3.119 -0.1424,1.0081 -0.3325,1.955 -0.5702,2.8442 -0.2375,0.8895 -0.516,1.7006 -0.8415,2.4371 -0.3225,0.733 -0.6791,1.3678 -1.0624,1.8973 -0.387,0.5329 -0.7945,0.9434 -1.2289,1.2354 -0.4309,0.2952 -0.8754,0.441 -1.3305,0.441 z"
         style="fill:#663333;fill-rule:evenodd"
         id="path59"
         inkscape:connector-curvature="0" />
      <path
         d="m 255.336,201.0801 c 0,1.7988 1.1251,2.9734 2.801,2.9734 1.0843,0 1.9631,-0.4927 2.4395,-1.3305 l -1.0843,-0.5338 c -0.3039,0.5009 -0.7392,0.7719 -1.306,0.7719 -0.8544,0 -1.5278,-0.649 -1.5278,-1.881 0,-1.232 0.6734,-1.881 1.5278,-1.881 0.5668,0 1.0021,0.271 1.306,0.7722 l 1.0843,-0.5338 c -0.4764,-0.8381 -1.3552,-1.3308 -2.4395,-1.3308 -1.6759,0 -2.801,1.1746 -2.801,2.9734 z m 8.1973,2.875 h 1.3061 v -4.6738 h 1.6592 v -1.0761 h -4.6245 v 1.0761 h 1.6592 z m 9.7173,-2.875 c 0,-1.6921 -1.0184,-2.9734 -2.7187,-2.9734 -1.7003,0 -2.7188,1.2813 -2.7188,2.9734 0,1.6922 1.0185,2.9734 2.7188,2.9734 1.7003,0 2.7187,-1.2812 2.7187,-2.9734 z m -4.1151,0 c 0,-1.158 0.542,-1.881 1.3964,-1.881 0.8541,0 1.3964,0.723 1.3964,1.881 0,1.1583 -0.5423,1.881 -1.3964,1.881 -0.8544,0 -1.3964,-0.7227 -1.3964,-1.881 z m 7.6142,-1.7988 h 1.8565 v 4.6738 h 1.3061 v -5.7499 h -4.4686 v 4.0988 c 0,0.452 -0.1725,0.6737 -0.6405,0.6737 -0.1233,0 -0.2302,0 -0.3616,-0.0166 v 1.068 c 0.148,0.0163 0.3205,0.0244 0.4764,0.0244 1.3142,0 1.8317,-0.542 1.8317,-1.6426 z m 10.0049,-1.0761 v 5.7499 h 1.3061 v -5.7499 z m -3.4088,2.1849 v -2.1849 h -1.306 v 5.7499 h 2.0864 c 1.2813,0 2.0616,-0.6735 2.0616,-1.7825 0,-1.117 -0.7803,-1.7825 -2.0616,-1.7825 z m 1.536,1.7825 c 0,0.4927 -0.3121,0.7063 -0.9036,0.7063 h -0.6324 v -1.4127 h 0.6324 c 0.5915,0 0.9036,0.1973 0.9036,0.7064 z m 13.5118,-3.9674 h -1.2731 l -2.2671,3.6801 v -3.6801 h -1.2649 v 5.7499 h 1.2731 l 2.2671,-3.6798 v 3.6798 h 1.2649 z m 5.2568,2.8749 c 0,1.7988 1.1251,2.9734 2.801,2.9734 1.0843,0 1.9631,-0.4927 2.4396,-1.3305 l -1.0843,-0.5338 c -0.304,0.5009 -0.7393,0.7719 -1.3061,0.7719 -0.8544,0 -1.5278,-0.649 -1.5278,-1.881 0,-1.232 0.6734,-1.881 1.5278,-1.881 0.5668,0 1.0021,0.271 1.3061,0.7722 l 1.0843,-0.5338 c -0.4765,-0.8381 -1.3553,-1.3308 -2.4396,-1.3308 -1.6759,0 -2.801,1.1746 -2.801,2.9734 z m 8.1974,2.875 h 1.306 v -4.6738 h 1.6592 v -1.0761 h -4.6245 v 1.0761 h 1.6593 z m 5.7251,-5.7499 h -1.3387 l 1.9547,3.9921 -0.7967,1.7578 h 1.3471 l 2.604,-5.7499 h -1.339 l -1.2076,2.6287 z m 6.9245,1.0761 h 1.8565 v 4.6738 h 1.306 v -5.7499 h -4.4686 v 4.0988 c 0,0.452 -0.1725,0.6737 -0.6405,0.6737 -0.1232,0 -0.2302,0 -0.3616,-0.0166 v 1.068 c 0.148,0.0163 0.3205,0.0244 0.4764,0.0244 1.3142,0 1.8318,-0.542 1.8318,-1.6426 z m 6.5961,1.1088 v -2.1849 h -1.3061 v 5.7499 h 2.0864 c 1.2813,0 2.0617,-0.6735 2.0617,-1.7825 0,-1.117 -0.7804,-1.7825 -2.0617,-1.7825 z m 1.5359,1.7825 c 0,0.4927 -0.3121,0.7063 -0.9036,0.7063 h -0.6323 v -1.4127 h 0.6323 c 0.5915,0 0.9036,0.1973 0.9036,0.7064 z m 2.9079,-2.1849 c 0,0.7966 0.4187,1.3308 1.1088,1.5936 l -1.4704,2.3738 h 1.413 l 1.2483,-2.1931 h 0.797 v 2.1931 h 1.3057 v -5.7499 h -2.0945 c -1.429,0 -2.3079,0.5834 -2.3079,1.7825 z m 1.3061,0 c 0,-0.5257 0.3365,-0.7719 0.9936,-0.7719 h 0.797 v 1.5359 h -0.797 c -0.6571,0 -0.9936,-0.2384 -0.9936,-0.764 z"
         style="fill:#663333;fill-rule:evenodd"
         id="path61"
         inkscape:connector-curvature="0" />
      <path
         d="m 226.1654,190.8826 c -0.42,0 -0.7606,-0.3513 -0.7606,-0.7841 0,-0.4328 0.3406,-0.7841 0.7606,-0.7841 h 143.3195 c 0.4199,0 0.7606,0.3513 0.7606,0.7841 0,0.4328 -0.3407,0.7841 -0.7606,0.7841 z"
         style="fill:#663333;fill-rule:evenodd"
         id="path63"
         inkscape:connector-curvature="0" />
      <path
         d="m 274.169,78.0168 c 1.4639,1.5754 2.231,3.7728 1.9056,6.0677 -0.3254,2.295 -1.6731,4.1925 -3.5172,5.2989 -1.4638,-1.5754 -2.2312,-3.7728 -1.9059,-6.0678 0.3254,-2.2949 1.6734,-4.1924 3.5175,-5.2988 z"
         style="fill:#6cab4e;fill-rule:evenodd"
         id="path65"
         inkscape:connector-curvature="0" />
      <path
         d="m 274.7417,77.4838 c 0.8252,0.8879 1.4504,1.9553 1.8173,3.1236 0.3526,1.1232 0.4671,2.3411 0.2908,3.5844 -0.1766,1.2462 -0.6258,2.3863 -1.2772,3.368 -0.6766,1.0194 -1.5742,1.8707 -2.614,2.4945 -0.3224,0.1926 -0.7277,0.1264 -0.9736,-0.1383 l -3e-4,3e-4 c -0.8252,-0.8882 -1.4506,-1.9553 -1.8176,-3.1236 -0.3525,-1.1232 -0.467,-2.3415 -0.2908,-3.5845 0.1766,-1.2461 0.6258,-2.3862 1.2775,-3.3677 0.6766,-1.0196 1.5743,-1.8709 2.614,-2.4947 0.3225,-0.1926 0.7277,-0.1264 0.9736,0.1383 z m 0.3225,3.5891 c -0.2296,-0.7315 -0.5847,-1.414 -1.0429,-2.0177 -0.6079,0.4522 -1.1383,1.0096 -1.5627,1.6491 -0.5269,0.7933 -0.8898,1.7142 -1.0322,2.7185 -0.1427,1.0071 -0.0502,1.9942 0.2356,2.9044 0.2296,0.7314 0.5849,1.4133 1.0432,2.0174 0.6078,-0.4523 1.1382,-1.0093 1.5626,-1.6486 0.5266,-0.7935 0.8895,-1.7141 1.0319,-2.7187 0.1427,-1.0071 0.0502,-1.9942 -0.2355,-2.9044 z"
         style="fill:#663333;fill-rule:evenodd"
         id="path67"
         inkscape:connector-curvature="0" />
      <path
         d="m 283.696,92.1637 c -1.7186,1.2928 -3.9836,1.8282 -6.2325,1.2669 -2.2489,-0.5614 -3.9966,-2.0984 -4.9061,-4.0472 1.7186,-1.2928 3.9837,-1.8285 6.2326,-1.2671 2.2489,0.5613 3.9965,2.0987 4.906,4.0474 z"
         style="fill:#6cab4e;fill-rule:evenodd"
         id="path69"
         inkscape:connector-curvature="0" />
      <path
         d="m 284.1457,92.8026 c -0.9614,0.7188 -2.0796,1.2248 -3.2718,1.4675 v 7e-4 c -1.158,0.2352 -2.3831,0.223 -3.6001,-0.0807 l -0.0357,-0.0097 c -1.2038,-0.3061 -2.2774,-0.8669 -3.1779,-1.6096 -0.9451,-0.7795 -1.6985,-1.7596 -2.2104,-2.8565 -0.1627,-0.3481 -0.0461,-0.7562 0.2579,-0.9698 0.9613,-0.7189 2.0795,-1.2248 3.272,-1.4676 v -6e-4 c 1.158,-0.2352 2.3834,-0.2233 3.6001,0.0803 1.216,0.3036 2.3031,0.8685 3.214,1.6197 0.9444,0.7791 1.6981,1.7593 2.2097,2.8564 0.1628,0.3482 0.0461,0.7563 -0.2578,0.9699 z m -3.581,-0.0631 c 0.7499,-0.1524 1.4654,-0.4353 2.1146,-0.8296 -0.3873,-0.6524 -0.8867,-1.2386 -1.4779,-1.7267 -0.733,-0.6047 -1.6125,-1.0604 -2.6011,-1.3073 -0.9883,-0.2465 -1.9779,-0.2575 -2.9082,-0.0683 v -7e-4 l -0.003,7e-4 c -0.7503,0.1524 -1.4657,0.4353 -2.115,0.8296 0.3877,0.6527 0.887,1.2386 1.4786,1.7266 0.7267,0.5994 1.5958,1.0526 2.5703,1.3001 l 0.0305,0.0069 c 0.9886,0.2465 1.9779,0.2578 2.9081,0.0687 v 6e-4 z"
         style="fill:#663333;fill-rule:evenodd"
         id="path71"
         inkscape:connector-curvature="0" />
      <path
         d="m 275.5961,95.6388 c -0.9824,1.9131 -2.787,3.3829 -5.0555,3.8589 -2.2685,0.476 -4.5116,-0.1446 -6.1801,-1.5014 0.9824,-1.913 2.7869,-3.3832 5.0554,-3.8592 2.2685,-0.4759 4.5117,0.1449 6.1802,1.5017 z"
         style="fill:#6cab4e;fill-rule:evenodd"
         id="path73"
         inkscape:connector-curvature="0" />
      <path
         d="m 276.2739,96.0282 c -0.5536,1.0661 -1.3368,2.0051 -2.2975,2.7385 -0.9369,0.7151 -2.0453,1.2383 -3.2764,1.4967 -1.2286,0.2575 -2.4521,0.2236 -3.5979,-0.0546 -1.1897,-0.2888 -2.2953,-0.8424 -3.2347,-1.6059 -0.3017,-0.2452 -0.3729,-0.669 -0.1848,-0.9958 0.5536,-1.0661 1.3368,-2.0055 2.2979,-2.7388 0.9365,-0.7152 2.045,-1.2386 3.2761,-1.4968 1.2282,-0.2575 2.4518,-0.2239 3.5976,0.0546 1.1896,0.2889 2.2956,0.8428 3.235,1.6062 0.3017,0.2453 0.3729,0.669 0.1847,0.9959 z m -3.2472,1.4951 c 0.611,-0.4664 1.1323,-1.0328 1.5435,-1.6686 -0.6339,-0.4181 -1.3387,-0.7283 -2.0836,-0.9093 -0.925,-0.2249 -1.9152,-0.2515 -2.9114,-0.0426 -0.9933,0.2082 -1.8885,0.631 -2.645,1.2088 -0.6113,0.4664 -1.1323,1.0332 -1.5438,1.6689 0.6336,0.4181 1.3384,0.728 2.0833,0.909 0.9249,0.2246 1.9151,0.2515 2.9116,0.0427 0.9934,-0.2086 1.8885,-0.6311 2.6454,-1.2089 z"
         style="fill:#663333;fill-rule:evenodd"
         id="path75"
         inkscape:connector-curvature="0" />
      <path
         d="m 263.6729,86.2084 c 1.7138,1.2993 2.8485,3.3313 2.924,5.648 0.0755,2.3166 -0.9246,4.4182 -2.5501,5.8263 -1.7137,-1.2993 -2.8488,-3.3313 -2.9243,-5.6479 -0.0755,-2.3167 0.9249,-4.4183 2.5504,-5.8264 z"
         style="fill:#6cab4e;fill-rule:evenodd"
         id="path77"
         inkscape:connector-curvature="0" />
      <path
         d="m 264.1848,85.6171 c 0.9488,0.7289 1.7348,1.6608 2.2887,2.7303 0.5411,1.0454 0.8635,2.2266 0.9043,3.4844 0.0408,1.2559 -0.2039,2.4556 -0.6762,3.5339 -0.4909,1.122 -1.2277,2.1153 -2.1432,2.9082 -0.2977,0.2575 -0.7346,0.2506 -1.0235,0 -0.9485,-0.7286 -1.7348,-1.6602 -2.289,-2.7303 -0.5411,-1.0454 -0.8635,-2.227 -0.9043,-3.4844 -0.0408,-1.2556 0.2042,-2.455 0.6763,-3.5336 0.4911,-1.1223 1.2282,-2.1156 2.1435,-2.9085 0.2976,-0.2575 0.7345,-0.2506 1.0234,0 z m 0.898,3.4473 c -0.3532,-0.6815 -0.8205,-1.2932 -1.3751,-1.8085 -0.5216,0.5514 -0.9488,1.1916 -1.2565,1.8945 -0.382,0.8732 -0.5805,1.8439 -0.5476,2.8599 0.0329,1.0137 0.2945,1.9688 0.733,2.8162 0.3532,0.6819 0.8208,1.2932 1.3754,1.8089 0.5216,-0.5514 0.9488,-1.1919 1.2562,-1.8945 0.3823,-0.8732 0.5805,-1.8439 0.5476,-2.8602 -0.0329,-1.0137 -0.2945,-1.9688 -0.733,-2.8163 z"
         style="fill:#663333;fill-rule:evenodd"
         id="path79"
         inkscape:connector-curvature="0" />
      <path
         d="m 270.1292,103.4396 c -0.6869,2.0379 -2.2527,3.7598 -4.4251,4.568 -2.1725,0.8081 -4.483,0.5282 -6.3348,-0.5653 0.6869,-2.0379 2.2526,-3.7602 4.425,-4.5683 2.1725,-0.8082 4.4831,-0.5279 6.3349,0.5656 z"
         style="fill:#6cab4e;fill-rule:evenodd"
         id="path81"
         inkscape:connector-curvature="0" />
      <path
         d="m 270.8553,103.7321 c -0.3887,1.1316 -1.0232,2.1742 -1.8641,3.0427 -0.8186,0.845 -1.8361,1.5266 -3.0145,1.9647 -1.1771,0.4379 -2.3922,0.5866 -3.5656,0.4821 -1.2232,-0.1091 -2.3998,-0.4915 -3.4401,-1.1056 -0.3375,-0.1995 -0.4705,-0.6135 -0.3278,-0.9664 0.3886,-1.1316 1.0231,-2.1745 1.8643,-3.0427 0.8187,-0.845 1.8359,-1.5265 3.0142,-1.965 1.1772,-0.4376 2.3926,-0.5862 3.5656,-0.4818 1.2233,0.1091 2.3998,0.4915 3.4402,1.1056 0.3375,0.1995 0.4705,0.6135 0.3278,0.9664 z m -2.9851,1.9525 c 0.5332,-0.5505 0.9639,-1.1881 1.276,-1.8788 -0.6894,-0.3202 -1.4322,-0.5222 -2.1937,-0.59 -0.9488,-0.0847 -1.9324,0.0358 -2.8856,0.3902 -0.9517,0.3541 -1.7747,0.9061 -2.4384,1.5912 -0.5338,0.5507 -0.9641,1.1881 -1.2762,1.8787 0.6894,0.3203 1.4321,0.5223 2.1937,0.59 0.9488,0.0847 1.9324,-0.0361 2.8856,-0.3905 0.9519,-0.3538 1.7749,-0.9058 2.4386,-1.5908 z"
         style="fill:#663333;fill-rule:evenodd"
         id="path83"
         inkscape:connector-curvature="0" />
      <path
         d="m 254.6517,96.8037 c 2.0762,0.5604 3.8911,2.0175 4.8312,4.1362 0.9401,2.1186 0.8026,4.442 -0.1751,6.3575 -2.0762,-0.5605 -3.8914,-2.0174 -4.8315,-4.1361 -0.9401,-2.1187 -0.8023,-4.4422 0.1754,-6.3576 z"
         style="fill:#6cab4e;fill-rule:evenodd"
         id="path85"
         inkscape:connector-curvature="0" />
      <path
         d="m 254.8928,96.0579 c 1.154,0.3175 2.2358,0.8871 3.1563,1.6753 0.8936,0.765 1.6364,1.7395 2.1473,2.8912 0.51,1.1496 0.7333,2.3534 0.701,3.5299 -0.0335,1.227 -0.3425,2.4236 -0.8911,3.4984 -0.1769,0.3479 -0.5784,0.5069 -0.9384,0.3909 -1.1552,-0.3178 -2.2373,-0.8877 -3.1579,-1.6759 -0.8936,-0.765 -1.6363,-1.7395 -2.1472,-2.8909 -0.5097,-1.1492 -0.733,-2.353 -0.7011,-3.5296 0.0339,-1.2276 0.3432,-2.4242 0.8914,-3.4988 0.1769,-0.3481 0.5797,-0.5071 0.9397,-0.3905 z m 2.1395,2.864 c -0.5822,-0.4984 -1.2443,-0.8886 -1.9538,-1.158 -0.2772,0.7085 -0.4338,1.4619 -0.4548,2.226 -0.026,0.9532 0.1544,1.9277 0.5662,2.8558 0.4109,0.9259 1.0118,1.7122 1.737,2.3333 0.5821,0.4984 1.2449,0.8885 1.9544,1.158 0.2772,-0.7083 0.4331,-1.4617 0.4541,-2.2254 0.0264,-0.9535 -0.1543,-1.9277 -0.5661,-2.8561 -0.4109,-0.9259 -1.0119,-1.7129 -1.737,-2.3336 z"
         style="fill:#663333;fill-rule:evenodd"
         id="path87"
         inkscape:connector-curvature="0" />
      <path
         d="m 266.4331,111.1479 c 0.0809,2.149 -0.7719,4.3146 -2.5162,5.841 -1.7443,1.5265 -4.0038,2.0847 -6.1231,1.7195 -0.0809,-2.1491 0.7717,-4.3148 2.516,-5.8413 1.7443,-1.5265 4.004,-2.0844 6.1233,-1.7192 z"
         style="fill:#6cab4e;fill-rule:evenodd"
         id="path89"
         inkscape:connector-curvature="0" />
      <path
         d="m 267.2156,111.1716 c 0.0374,1.195 -0.1847,2.3916 -0.6608,3.4966 -0.4655,1.0809 -1.1756,2.0795 -2.1232,2.9088 -0.9466,0.8284 -2.0302,1.3995 -3.1641,1.7179 -1.1793,0.3309 -2.4135,0.3905 -3.6054,0.1854 -0.3902,-0.0662 -0.6628,-0.4112 -0.6508,-0.7958 -0.0374,-1.1953 0.1847,-2.3919 0.6605,-3.4969 0.4655,-1.0808 1.1756,-2.0795 2.1231,-2.9085 0.9469,-0.8283 2.0306,-1.3995 3.1645,-1.7179 1.1793,-0.3309 2.4132,-0.3905 3.6054,-0.1853 0.3902,0.0662 0.6627,0.4112 0.6508,0.7957 z m -2.1005,2.8781 c 0.3039,-0.7054 0.4808,-1.4544 0.5285,-2.21 -0.7575,-0.054 -1.5237,0.0213 -2.2614,0.2283 -0.9178,0.2579 -1.7938,0.7189 -2.5579,1.3873 -0.7625,0.6672 -1.3355,1.4745 -1.7128,2.3508 -0.304,0.7058 -0.4805,1.4548 -0.5282,2.2104 0.7578,0.0539 1.5237,-0.0214 2.2614,-0.2284 0.9175,-0.2575 1.7941,-0.7189 2.5575,-1.3873 0.7625,-0.6674 1.3356,-1.4748 1.7129,-2.3511 z"
         style="fill:#663333;fill-rule:evenodd"
         id="path91"
         inkscape:connector-curvature="0" />
      <path
         d="m 249.6323,110.6345 c 2.1377,-0.2351 4.3589,0.46 6.0067,2.0901 1.6478,1.6301 2.3668,3.8437 2.1548,5.9838 -2.1376,0.2351 -4.3591,-0.4598 -6.0069,-2.0899 -1.6478,-1.6301 -2.3666,-3.8439 -2.1546,-5.984 z"
         style="fill:#6cab4e;fill-rule:evenodd"
         id="path93"
         inkscape:connector-curvature="0" />
      <path
         d="m 249.5495,109.8568 c 1.2013,-0.1321 2.4286,0.003 3.5856,0.4052 1.1166,0.3883 2.1642,1.0238 3.0553,1.9051 0.8902,0.8808 1.5366,1.9221 1.9378,3.0362 0.4146,1.1517 0.5624,2.3778 0.4435,3.5816 -0.0367,0.3754 -0.3337,0.6627 -0.6951,0.701 v 3e-4 c -1.2013,0.1321 -2.4292,-0.003 -3.586,-0.4052 -1.1128,-0.3867 -2.1595,-1.0228 -3.0534,-1.9067 l -0.001,0.002 c -0.8902,-0.8808 -1.5366,-1.9218 -1.9378,-3.0359 -0.4146,-1.1517 -0.5624,-2.3781 -0.4435,-3.5819 0.0367,-0.3754 0.3337,-0.6627 0.6951,-0.701 z m 3.0712,1.8819 c -0.7232,-0.2516 -1.4832,-0.3736 -2.2429,-0.3657 6e-4,0.7593 0.1308,1.5187 0.3905,2.2401 0.3206,0.8908 0.8444,1.7301 1.5702,2.448 l -0.002,0.002 0.002,10e-4 c 0.7214,0.7138 1.5676,1.2279 2.4665,1.5403 0.7233,0.2516 1.4836,0.3736 2.2433,0.3657 -7e-4,-0.7596 -0.1308,-1.5184 -0.3905,-2.2398 -0.3206,-0.8907 -0.8444,-1.7304 -1.5702,-2.4483 -0.7248,-0.717 -1.5701,-1.2314 -2.4669,-1.5432 z"
         style="fill:#663333;fill-rule:evenodd"
         id="path95"
         inkscape:connector-curvature="0" />
      <path
         d="m 265.6535,120.3235 c 0.9499,1.9294 1.0538,4.2545 0.0832,6.3594 -0.9705,2.1049 -2.8063,3.5356 -4.8904,4.066 -0.9499,-1.9294 -1.0541,-4.2547 -0.0836,-6.3596 0.9706,-2.1049 2.8067,-3.5354 4.8908,-4.0658 z"
         style="fill:#6cab4e;fill-rule:evenodd"
         id="path97"
         inkscape:connector-curvature="0" />
      <path
         d="m 266.3797,120.0282 c 0.5185,1.0721 0.8024,2.2555 0.8177,3.4624 0.0151,1.1803 -0.2249,2.3813 -0.7499,3.5202 -0.5247,1.1385 -1.2825,2.1014 -2.1909,2.8564 -0.9447,0.7851 -2.0475,1.3437 -3.2174,1.6413 -0.3842,0.0973 -0.7744,-0.1072 -0.919,-0.4645 -0.5185,-1.0721 -0.802,-2.2552 -0.818,-3.4627 -0.0151,-1.18 0.2249,-2.381 0.7499,-3.5198 0.5248,-1.1386 1.2829,-2.1012 2.1909,-2.8561 0.9447,-0.7851 2.0478,-1.344 3.2177,-1.6417 0.3843,-0.0972 0.7745,0.1073 0.919,0.4645 z m -0.7443,3.4806 c -0.01,-0.765 -0.1546,-1.5203 -0.4206,-2.2313 -0.716,0.2594 -1.3854,0.6398 -1.9731,1.1285 -0.7299,0.6069 -1.3415,1.3857 -1.7681,2.311 -0.4266,0.9253 -0.6217,1.896 -0.6094,2.8461 0.01,0.7653 0.1546,1.5206 0.4209,2.2316 0.7157,-0.2594 1.3851,-0.6395 1.9729,-1.1282 0.7298,-0.6066 1.3415,-1.3857 1.768,-2.3113 0.4263,-0.9249 0.6217,-1.896 0.6094,-2.8464 z"
         style="fill:#663333;fill-rule:evenodd"
         id="path99"
         inkscape:connector-curvature="0" />
      <path
         d="m 250.3668,126.0607 c 1.9185,-0.9718 4.2422,-1.1022 6.3581,-0.1557 2.1158,0.9466 3.5673,2.7659 4.1214,4.8439 -1.9185,0.9718 -4.2424,1.1025 -6.3582,0.1559 -2.1158,-0.9465 -3.5672,-2.7661 -4.1213,-4.8441 z"
         style="fill:#6cab4e;fill-rule:evenodd"
         id="path101"
         inkscape:connector-curvature="0" />
      <path
         d="m 250.0262,125.3565 c 1.0746,-0.5423 2.2684,-0.8459 3.4894,-0.8757 1.1784,-0.0285 2.3816,0.1983 3.528,0.7108 1.1454,0.5122 2.1165,1.2587 2.8818,2.1582 0.7951,0.9347 1.366,2.0315 1.6774,3.1999 0.0966,0.3682 -0.0856,0.744 -0.4159,0.9033 -1.0749,0.5423 -2.2683,0.8459 -3.4897,0.876 -1.1781,0.0286 -2.3815,-0.1979 -3.5276,-0.7107 -1.1452,-0.5122 -2.1166,-1.2587 -2.8819,-2.1582 l -0.001,-0.001 -0.002,0.001 c -0.7923,-0.9316 -1.3625,-2.0287 -1.6746,-3.2002 -0.0966,-0.3683 0.0856,-0.744 0.4159,-0.9034 z m 3.5264,0.6863 c -0.7653,0.0185 -1.5193,0.1719 -2.2279,0.4463 0.2673,0.7098 0.6568,1.3751 1.1546,1.9604 l -0.002,0.001 c 0.6154,0.723 1.4008,1.3252 2.3292,1.7405 0.9284,0.4153 1.9017,0.5991 2.8533,0.5759 0.7656,-0.0189 1.52,-0.1719 2.2285,-0.4467 -0.2672,-0.712 -0.6555,-1.3766 -1.152,-1.96 -0.6157,-0.7236 -1.4008,-1.3261 -2.3305,-1.7417 -0.9287,-0.4153 -1.9017,-0.5991 -2.8536,-0.5759 z"
         style="fill:#663333;fill-rule:evenodd"
         id="path103"
         inkscape:connector-curvature="0" />
      <path
         d="m 269.2861,128.6833 c 1.3391,1.6828 1.936,3.9323 1.436,6.1957 -0.4999,2.2633 -1.9887,4.0522 -3.912,5.0144 -1.3391,-1.6828 -1.9363,-3.9324 -1.4364,-6.1958 0.5,-2.2633 1.9891,-4.0521 3.9124,-5.0143 z"
         style="fill:#6cab4e;fill-rule:evenodd"
         id="path105"
         inkscape:connector-curvature="0" />
      <path
         d="m 269.8986,128.196 c 0.754,0.9473 1.2954,2.0595 1.5724,3.2529 0.2653,1.1455 0.2851,2.3697 0.0141,3.5986 -0.271,1.227 -0.8058,2.3292 -1.531,3.2585 -0.7521,0.9645 -1.7116,1.7439 -2.7949,2.2859 -0.336,0.1678 -0.7359,0.0706 -0.9604,-0.2123 l -0.001,9e-4 c -0.7537,-0.9475 -1.2957,-2.0591 -1.5723,-3.2535 -0.2654,-1.1455 -0.2855,-2.369 -0.0141,-3.5979 0.2706,-1.227 0.8054,-2.3292 1.5306,-3.2582 0.7524,-0.9645 1.7119,-1.7443 2.7953,-2.2863 0.3359,-0.1678 0.7358,-0.0705 0.9604,0.2124 z m 0.0467,3.6023 c -0.1731,-0.7461 -0.4751,-1.4537 -0.8866,-2.0914 -0.6415,0.4052 -1.2136,0.9203 -1.6856,1.5256 -0.5853,0.75 -1.0175,1.641 -1.2364,2.6334 -0.2187,0.9906 -0.2014,1.9811 0.0141,2.9117 0.1728,0.7465 0.4752,1.4541 0.8867,2.092 0.6411,-0.4052 1.2132,-0.9202 1.6852,-1.5253 0.5853,-0.7502 1.0175,-1.6413 1.2368,-2.6337 0.2183,-0.9905 0.2013,-1.9813 -0.0142,-2.9123 z"
         style="fill:#663333;fill-rule:evenodd"
         id="path107"
         inkscape:connector-curvature="0" />
      <path
         d="m 258.3495,141.1007 c 1.6527,-1.376 3.8886,-2.0224 6.1624,-1.5727 2.2738,0.4497 4.0952,1.8987 5.0997,3.8002 -1.6527,1.376 -3.8886,2.0228 -6.1625,1.573 -2.2738,-0.4497 -4.0951,-1.8989 -5.0996,-3.8005 z"
         style="fill:#6cab4e;fill-rule:evenodd"
         id="path109"
         inkscape:connector-curvature="0" />
      <path
         d="m 257.8885,140.4686 c 0.9253,-0.7609 2.0099,-1.3167 3.1767,-1.6143 1.1414,-0.2911 2.3646,-0.3385 3.597,-0.0951 1.2311,0.2434 2.3452,0.7544 3.2911,1.4591 0.9837,0.7327 1.785,1.6753 2.3506,2.7454 0.1831,0.3479 0.0777,0.7716 -0.2312,0.9965 -0.9253,0.7609 -2.0102,1.3167 -3.1767,1.6144 -1.1414,0.2914 -2.3646,0.339 -3.597,0.0953 -1.2317,-0.2434 -2.3451,-0.754 -3.2914,-1.4591 l -0.002,-0.001 -0.001,0.001 c -0.9795,-0.7302 -1.7802,-1.673 -2.347,-2.7457 -0.1832,-0.3478 -0.0778,-0.7716 0.2311,-0.9965 z m 3.5625,-0.095 c -0.7449,0.1901 -1.4459,0.5069 -2.0723,0.9297 0.419,0.6314 0.9469,1.1922 1.5629,1.6517 l -10e-4,10e-4 c 0.7622,0.5671 1.6614,0.9789 2.6591,1.1759 0.9971,0.197 1.9873,0.1584 2.9107,-0.0771 0.7446,-0.1901 1.4456,-0.5072 2.0723,-0.93 -0.419,-0.633 -0.9459,-1.1938 -1.5601,-1.6511 -0.7622,-0.568 -1.6627,-0.9802 -2.6607,-1.1774 -0.9974,-0.197 -1.9873,-0.1587 -2.9107,0.0768 z"
         style="fill:#663333;fill-rule:evenodd"
         id="path111"
         inkscape:connector-curvature="0" />
      <path
         d="m 321.1061,78.0168 c -1.4638,1.5754 -2.2309,3.7728 -1.9056,6.0677 0.3254,2.295 1.6731,4.1925 3.5172,5.2989 1.4639,-1.5754 2.2313,-3.7728 1.9059,-6.0678 -0.3254,-2.2949 -1.6734,-4.1924 -3.5175,-5.2988 z"
         style="fill:#6cab4e;fill-rule:evenodd"
         id="path113"
         inkscape:connector-curvature="0" />
      <path
         d="m 321.2539,79.0552 c -0.4583,0.6037 -0.8133,1.2862 -1.0429,2.0177 -0.2857,0.9102 -0.3783,1.8973 -0.2356,2.9044 0.1424,1.0046 0.5053,1.9252 1.032,2.7187 0.4243,0.6393 0.9547,1.1963 1.5626,1.6486 0.4582,-0.6041 0.8136,-1.286 1.0432,-2.0174 0.2857,-0.9102 0.3782,-1.8973 0.2355,-2.9044 -0.1424,-1.0043 -0.5053,-1.9252 -1.0322,-2.7185 -0.4244,-0.6395 -0.9548,-1.1969 -1.5626,-1.6491 z m -2.5378,1.5522 c 0.367,-1.1683 0.9921,-2.2357 1.8173,-3.1236 l 3e-4,3e-4 c 0.2459,-0.2647 0.6512,-0.3309 0.9736,-0.1383 1.0398,0.6238 1.9374,1.4751 2.614,2.4947 0.6518,0.9815 1.1009,2.1216 1.2775,3.3677 0.1763,1.243 0.0618,2.4613 -0.2908,3.5845 -0.3669,1.1683 -0.9924,2.2354 -1.8176,3.1236 l -3e-4,-3e-4 c -0.2459,0.2647 -0.6511,0.3309 -0.9736,0.1383 -1.0397,-0.6238 -1.9374,-1.4751 -2.6139,-2.4945 -0.6515,-0.9817 -1.1006,-2.1218 -1.2772,-3.368 -0.1763,-1.2433 -0.0618,-2.4612 0.2907,-3.5844 z"
         style="fill:#663333;fill-rule:evenodd"
         id="path115"
         inkscape:connector-curvature="0" />
      <path
         d="m 311.5791,92.1637 c 1.7186,1.2928 3.9836,1.8282 6.2325,1.2669 2.2489,-0.5614 3.9966,-2.0984 4.9061,-4.0472 -1.7186,-1.2928 -3.9837,-1.8285 -6.2326,-1.2671 -2.2489,0.5613 -3.9965,2.0987 -4.906,4.0474 z"
         style="fill:#6cab4e;fill-rule:evenodd"
         id="path117"
         inkscape:connector-curvature="0" />
      <path
         d="m 312.5958,91.9099 c 0.6493,0.3943 1.3647,0.6772 2.1147,0.8296 l 0.003,6e-4 v -6e-4 c 0.9303,0.1891 1.9196,0.1778 2.9082,-0.0687 l 0.0304,-0.0069 c 0.9745,-0.2475 1.8437,-0.7007 2.5704,-1.3001 0.5915,-0.488 1.0909,-1.0739 1.4786,-1.7266 -0.6493,-0.3943 -1.3648,-0.6772 -2.115,-0.8296 l -0.003,-7e-4 v 7e-4 c -0.9303,-0.1892 -1.9199,-0.1782 -2.9082,0.0683 -0.9887,0.2469 -1.8681,0.7026 -2.6012,1.3073 -0.5912,0.4881 -1.0905,1.0743 -1.4779,1.7267 z m 1.8054,2.3602 c -1.1922,-0.2427 -2.3104,-0.7487 -3.2717,-1.4675 -0.3039,-0.2136 -0.4206,-0.6217 -0.2578,-0.9699 0.5115,-1.0971 1.2652,-2.0773 2.2097,-2.8564 0.9108,-0.7512 1.9979,-1.3161 3.214,-1.6197 1.2166,-0.3036 2.442,-0.3155 3.6001,-0.0803 v 6e-4 c 1.1925,0.2428 2.3106,0.7487 3.272,1.4676 0.3039,0.2136 0.4206,0.6217 0.2578,0.9698 -0.5119,1.0969 -1.2653,2.077 -2.2103,2.8565 -0.9005,0.7427 -1.9741,1.3035 -3.1779,1.6096 l -0.0358,0.0097 c -1.217,0.3037 -2.4421,0.3159 -3.6001,0.0807 z"
         style="fill:#663333;fill-rule:evenodd"
         id="path119"
         inkscape:connector-curvature="0" />
      <path
         d="m 319.679,95.6388 c 0.9825,1.9131 2.787,3.3829 5.0555,3.8589 2.2685,0.476 4.5117,-0.1446 6.1802,-1.5014 -0.9825,-1.913 -2.7869,-3.3832 -5.0554,-3.8592 -2.2685,-0.4759 -4.5117,0.1449 -6.1803,1.5017 z"
         style="fill:#6cab4e;fill-rule:evenodd"
         id="path121"
         inkscape:connector-curvature="0" />
      <path
         d="m 320.705,95.8547 c 0.4112,0.6358 0.9325,1.2022 1.5435,1.6686 0.7568,0.5778 1.652,1.0003 2.6453,1.2089 0.9965,0.2088 1.9867,0.1819 2.9117,-0.0427 0.7449,-0.181 1.4497,-0.4909 2.0832,-0.909 -0.4115,-0.6357 -0.9325,-1.2025 -1.5438,-1.6689 -0.7565,-0.5778 -1.6517,-1.0006 -2.645,-1.2088 -0.9962,-0.2089 -1.9864,-0.1823 -2.9113,0.0426 -0.7449,0.181 -1.4497,0.4912 -2.0836,0.9093 z m 0.5937,2.912 c -0.9607,-0.7334 -1.7439,-1.6724 -2.2975,-2.7385 -0.1882,-0.3269 -0.117,-0.7506 0.1848,-0.9959 0.9394,-0.7634 2.0453,-1.3173 3.235,-1.6062 1.1458,-0.2785 2.3693,-0.3121 3.5976,-0.0546 1.2311,0.2582 2.3395,0.7816 3.2761,1.4968 0.961,0.7333 1.7442,1.6727 2.2978,2.7388 0.1882,0.3268 0.117,0.7506 -0.1847,0.9958 -0.9394,0.7635 -2.0451,1.3171 -3.2347,1.6059 -1.1458,0.2782 -2.3694,0.3121 -3.5979,0.0546 -1.2311,-0.2584 -2.3396,-0.7816 -3.2765,-1.4967 z"
         style="fill:#663333;fill-rule:evenodd"
         id="path123"
         inkscape:connector-curvature="0" />
      <path
         d="m 331.6022,86.2084 c -1.7137,1.2993 -2.8485,3.3313 -2.924,5.648 -0.0755,2.3166 0.9246,4.4182 2.5501,5.8263 1.7138,-1.2993 2.8489,-3.3313 2.9243,-5.6479 0.0755,-2.3167 -0.9249,-4.4183 -2.5504,-5.8264 z"
         style="fill:#6cab4e;fill-rule:evenodd"
         id="path125"
         inkscape:connector-curvature="0" />
      <path
         d="m 331.5674,87.2559 c -0.5545,0.5153 -1.0219,1.127 -1.375,1.8085 -0.4385,0.8475 -0.7001,1.8026 -0.7331,2.8163 -0.0329,1.0163 0.1653,1.987 0.5477,2.8602 0.3074,0.7026 0.7346,1.3431 1.2562,1.8945 0.5545,-0.5157 1.0222,-1.127 1.3753,-1.8089 0.4385,-0.8474 0.7001,-1.8025 0.733,-2.8162 0.033,-1.016 -0.1656,-1.9867 -0.5476,-2.8599 -0.3077,-0.7029 -0.7349,-1.3431 -1.2565,-1.8945 z m -2.7658,1.0915 c 0.5539,-1.0695 1.3399,-2.0014 2.2887,-2.7303 0.2889,-0.2506 0.7258,-0.2575 1.0235,0 0.9152,0.7929 1.6523,1.7862 2.1435,2.9085 0.472,1.0786 0.717,2.278 0.6762,3.5336 -0.0407,1.2574 -0.3632,2.439 -0.9042,3.4844 -0.5543,1.0701 -1.3406,2.0017 -2.2891,2.7303 -0.2888,0.2506 -0.7258,0.2575 -1.0234,0 -0.9156,-0.7929 -1.6523,-1.7862 -2.1432,-2.9082 -0.4724,-1.0783 -0.717,-2.278 -0.6762,-3.5339 0.0407,-1.2578 0.3632,-2.439 0.9042,-3.4844 z"
         style="fill:#663333;fill-rule:evenodd"
         id="path127"
         inkscape:connector-curvature="0" />
      <path
         d="m 325.1459,103.4396 c 0.687,2.0379 2.2527,3.7598 4.4252,4.568 2.1724,0.8081 4.4829,0.5282 6.3347,-0.5653 -0.6869,-2.0379 -2.2526,-3.7602 -4.425,-4.5683 -2.1724,-0.8082 -4.4831,-0.5279 -6.3349,0.5656 z"
         style="fill:#6cab4e;fill-rule:evenodd"
         id="path129"
         inkscape:connector-curvature="0" />
      <path
         d="m 326.129,103.8058 c 0.3121,0.6907 0.7427,1.3283 1.2759,1.8788 0.6637,0.685 1.4867,1.237 2.4387,1.5908 0.9532,0.3544 1.9368,0.4752 2.8856,0.3905 0.7615,-0.0677 1.5043,-0.2697 2.1937,-0.59 -0.3121,-0.6906 -0.7425,-1.328 -1.2763,-1.8787 -0.6637,-0.6851 -1.4867,-1.2371 -2.4383,-1.5912 -0.9532,-0.3544 -1.9368,-0.4749 -2.8856,-0.3902 -0.7616,0.0678 -1.5043,0.2698 -2.1937,0.59 z m 0.1549,2.969 c -0.8409,-0.8685 -1.4754,-1.9111 -1.864,-3.0427 -0.1427,-0.3529 -0.01,-0.7669 0.3278,-0.9664 1.0403,-0.6141 2.2169,-0.9965 3.4401,-1.1056 1.1731,-0.1044 2.3885,0.0442 3.5656,0.4818 1.1784,0.4385 2.1956,1.12 3.0142,1.965 0.8412,0.8682 1.4757,1.9111 1.8644,3.0427 0.1427,0.3529 0.01,0.7669 -0.3278,0.9664 -1.0404,0.6141 -2.2169,0.9965 -3.4402,1.1056 -1.1733,0.1045 -2.3884,-0.0442 -3.5656,-0.4821 -1.1783,-0.4381 -2.1958,-1.1197 -3.0145,-1.9647 z"
         style="fill:#663333;fill-rule:evenodd"
         id="path131"
         inkscape:connector-curvature="0" />
      <path
         d="m 340.6235,96.8037 c -2.0763,0.5604 -3.8912,2.0175 -4.8313,4.1362 -0.94,2.1186 -0.8025,4.442 0.1751,6.3575 2.0763,-0.5605 3.8915,-2.0174 4.8315,-4.1361 0.9401,-2.1187 0.8023,-4.4422 -0.1753,-6.3576 z"
         style="fill:#6cab4e;fill-rule:evenodd"
         id="path133"
         inkscape:connector-curvature="0" />
      <path
         d="m 340.1966,97.7639 c -0.7095,0.2694 -1.3716,0.6596 -1.9537,1.158 -0.7252,0.6207 -1.3261,1.4077 -1.737,2.3336 -0.4119,0.9284 -0.5925,1.9026 -0.5662,2.8561 0.021,0.7637 0.1769,1.5171 0.4542,2.2254 0.7095,-0.2695 1.3722,-0.6596 1.9544,-1.158 0.7251,-0.6211 1.3261,-1.4074 1.737,-2.3333 0.4118,-0.9281 0.5921,-1.9026 0.5661,-2.8558 -0.021,-0.7641 -0.1775,-1.5175 -0.4548,-2.226 z m -2.9706,-0.0307 c 0.9206,-0.7882 2.0024,-1.3578 3.1563,-1.6753 0.3601,-0.1166 0.7628,0.0424 0.9397,0.3905 0.5483,1.0746 0.8575,2.2712 0.8914,3.4988 0.032,1.1766 -0.1913,2.3804 -0.701,3.5296 -0.511,1.1514 -1.2537,2.1259 -2.1473,2.8909 -0.9205,0.7882 -2.0026,1.3581 -3.1578,1.6759 -0.3601,0.116 -0.7616,-0.043 -0.9385,-0.3909 -0.5486,-1.0748 -0.8575,-2.2714 -0.8911,-3.4984 -0.0323,-1.1765 0.191,-2.3803 0.701,-3.5299 0.511,-1.1517 1.2537,-2.1262 2.1473,-2.8912 z"
         style="fill:#663333;fill-rule:evenodd"
         id="path135"
         inkscape:connector-curvature="0" />
      <path
         d="m 328.8421,111.1479 c -0.081,2.149 0.7719,4.3146 2.5161,5.841 1.7443,1.5265 4.0038,2.0847 6.1231,1.7195 0.081,-2.1491 -0.7717,-4.3148 -2.5159,-5.8413 -1.7443,-1.5265 -4.004,-2.0844 -6.1233,-1.7192 z"
         style="fill:#6cab4e;fill-rule:evenodd"
         id="path137"
         inkscape:connector-curvature="0" />
      <path
         d="m 329.6315,111.8397 c 0.0477,0.7556 0.2246,1.5046 0.5285,2.21 0.3774,0.8763 0.9504,1.6837 1.7129,2.3511 0.7634,0.6684 1.6401,1.1298 2.5575,1.3873 0.7377,0.207 1.5037,0.2823 2.2615,0.2284 -0.0477,-0.7556 -0.2243,-1.5046 -0.5282,-2.2104 -0.3774,-0.8763 -0.9504,-1.6836 -1.7129,-2.3508 -0.764,-0.6684 -1.6401,-1.1294 -2.5578,-1.3873 -0.7377,-0.207 -1.504,-0.2823 -2.2615,-0.2283 z m -0.9111,2.8285 c -0.4761,-1.105 -0.6982,-2.3016 -0.6609,-3.4966 -0.0119,-0.3845 0.2607,-0.7295 0.6508,-0.7957 1.1922,-0.2052 2.4261,-0.1456 3.6055,0.1853 1.1338,0.3184 2.2175,0.8896 3.1644,1.7179 0.9476,0.829 1.6577,1.8277 2.1231,2.9085 0.4758,1.105 0.6979,2.3016 0.6606,3.4969 0.0119,0.3846 -0.2607,0.7296 -0.6508,0.7958 -1.1919,0.2051 -2.4261,0.1455 -3.6055,-0.1854 -1.1338,-0.3184 -2.2175,-0.8895 -3.1641,-1.7179 -0.9475,-0.8293 -1.6577,-1.8279 -2.1231,-2.9088 z"
         style="fill:#663333;fill-rule:evenodd"
         id="path139"
         inkscape:connector-curvature="0" />
      <path
         d="m 345.6429,110.6345 c -2.1377,-0.2351 -4.3589,0.46 -6.0067,2.0901 -1.6479,1.6301 -2.3669,3.8437 -2.1549,5.9838 2.1377,0.2351 4.3591,-0.4598 6.0069,-2.0899 1.6479,-1.6301 2.3667,-3.8439 2.1547,-5.984 z"
         style="fill:#6cab4e;fill-rule:evenodd"
         id="path141"
         inkscape:connector-curvature="0" />
      <path
         d="m 344.8973,111.373 c -0.7596,-0.008 -1.5196,0.1141 -2.2429,0.3657 -0.8967,0.3118 -1.742,0.8262 -2.4669,1.5432 -0.7258,0.7179 -1.2496,1.5576 -1.5701,2.4483 -0.2597,0.7214 -0.3899,1.4802 -0.3905,2.2398 0.7596,0.008 1.5199,-0.1141 2.2432,-0.3657 0.8989,-0.3124 1.7452,-0.8265 2.4666,-1.5403 l 0.002,-10e-4 -0.002,-0.002 c 0.7258,-0.7179 1.2496,-1.5572 1.5701,-2.448 0.2597,-0.7214 0.3899,-1.4808 0.3905,-2.2401 z m -2.7573,-1.111 c 1.1571,-0.4024 2.3844,-0.5373 3.5857,-0.4052 v 3e-4 c 0.3613,0.0383 0.6583,0.3256 0.695,0.701 0.1189,1.2038 -0.0288,2.4302 -0.4435,3.5819 -0.4011,1.1141 -1.0476,2.1551 -1.9377,3.0359 l -0.002,-0.002 c -0.8939,0.8839 -1.9406,1.52 -3.0534,1.9067 -1.1567,0.4024 -2.3847,0.5373 -3.586,0.4052 v -3e-4 c -0.3613,-0.0383 -0.6583,-0.3256 -0.695,-0.701 -0.1189,-1.2038 0.0288,-2.4299 0.4435,-3.5816 0.4011,-1.1141 1.0476,-2.1554 1.9377,-3.0362 0.8911,-0.8813 1.9387,-1.5168 3.0553,-1.9051 z"
         style="fill:#663333;fill-rule:evenodd"
         id="path143"
         inkscape:connector-curvature="0" />
      <path
         d="m 329.6217,120.3235 c -0.9499,1.9294 -1.0539,4.2545 -0.0833,6.3594 0.9706,2.1049 2.8063,3.5356 4.8905,4.066 0.9499,-1.9294 1.0541,-4.2547 0.0835,-6.3596 -0.9706,-2.1049 -2.8066,-3.5354 -4.8907,-4.0658 z"
         style="fill:#6cab4e;fill-rule:evenodd"
         id="path145"
         inkscape:connector-curvature="0" />
      <path
         d="m 330.0603,121.2775 c -0.266,0.711 -0.4106,1.4663 -0.4206,2.2313 -0.0122,0.9504 0.1832,1.9215 0.6094,2.8464 0.4266,0.9256 1.0382,1.7047 1.7681,2.3113 0.5878,0.4887 1.2571,0.8688 1.9729,1.1282 0.2662,-0.711 0.4108,-1.4663 0.4209,-2.2316 0.0122,-0.9501 -0.1829,-1.9208 -0.6094,-2.8461 -0.4266,-0.9253 -1.0382,-1.7041 -1.7681,-2.311 -0.5878,-0.4887 -1.2571,-0.8691 -1.9732,-1.1285 z m -1.9826,2.2131 c 0.0154,-1.2069 0.2992,-2.3903 0.8177,-3.4624 0.1446,-0.3572 0.5348,-0.5617 0.919,-0.4645 1.1699,0.2977 2.273,0.8566 3.2178,1.6417 0.908,0.7549 1.6661,1.7175 2.1908,2.8561 0.5251,1.1388 0.765,2.3398 0.75,3.5198 -0.016,1.2075 -0.2996,2.3906 -0.818,3.4627 -0.1446,0.3573 -0.5348,0.5618 -0.919,0.4645 -1.17,-0.2976 -2.2728,-0.8562 -3.2175,-1.6413 -0.9083,-0.755 -1.6661,-1.7179 -2.1908,-2.8564 -0.5251,-1.1389 -0.765,-2.3399 -0.75,-3.5202 z"
         style="fill:#663333;fill-rule:evenodd"
         id="path147"
         inkscape:connector-curvature="0" />
      <path
         d="m 344.9083,126.0607 c -1.9184,-0.9718 -4.2422,-1.1022 -6.358,-0.1557 -2.1158,0.9466 -3.5673,2.7659 -4.1214,4.8439 1.9184,0.9718 4.2423,1.1025 6.3581,0.1559 2.1158,-0.9465 3.5672,-2.7661 4.1213,-4.8441 z"
         style="fill:#6cab4e;fill-rule:evenodd"
         id="path149"
         inkscape:connector-curvature="0" />
      <path
         d="m 343.9504,126.4891 c -0.7085,-0.2744 -1.4626,-0.4278 -2.2279,-0.4463 -0.9519,-0.0232 -1.9249,0.1606 -2.8536,0.5759 -0.9296,0.4156 -1.7147,1.0181 -2.3304,1.7417 -0.4965,0.5834 -0.8848,1.248 -1.1521,1.96 0.7086,0.2748 1.4629,0.4278 2.2285,0.4467 0.9517,0.0232 1.9249,-0.1606 2.8533,-0.5759 0.9284,-0.4153 1.7138,-1.0175 2.3292,-1.7405 l -10e-4,-0.001 c 0.4977,-0.5853 0.8873,-1.2506 1.1545,-1.9604 z m -2.1909,-2.0083 c 1.2211,0.0298 2.4149,0.3334 3.4894,0.8757 0.3303,0.1594 0.5125,0.5351 0.4159,0.9034 -0.3121,1.1715 -0.8823,2.2686 -1.6746,3.2002 l -0.002,-0.001 -0.001,0.001 c -0.7653,0.8995 -1.7367,1.646 -2.8818,2.1582 -1.1461,0.5128 -2.3496,0.7393 -3.5277,0.7107 -1.2213,-0.0301 -2.4148,-0.3337 -3.4897,-0.876 -0.3302,-0.1593 -0.5125,-0.5351 -0.4159,-0.9033 0.3115,-1.1684 0.8823,-2.2652 1.6774,-3.1999 0.7654,-0.8995 1.7364,-1.646 2.8819,-2.1582 1.1464,-0.5125 2.3496,-0.7393 3.5279,-0.7108 z"
         style="fill:#663333;fill-rule:evenodd"
         id="path151"
         inkscape:connector-curvature="0" />
      <path
         d="m 325.989,128.6833 c -1.3391,1.6828 -1.9359,3.9323 -1.436,6.1957 0.4999,2.2633 1.9888,4.0522 3.9121,5.0144 1.3391,-1.6828 1.9362,-3.9324 1.4363,-6.1958 -0.4999,-2.2633 -1.9891,-4.0521 -3.9124,-5.0143 z"
         style="fill:#6cab4e;fill-rule:evenodd"
         id="path153"
         inkscape:connector-curvature="0" />
      <path
         d="m 326.2165,129.7069 c -0.4115,0.6377 -0.7136,1.3453 -0.8867,2.0914 -0.2155,0.931 -0.2324,1.9218 -0.0141,2.9123 0.2192,0.9924 0.6514,1.8835 1.2367,2.6337 0.4721,0.6051 1.0442,1.1201 1.6853,1.5253 0.4115,-0.6379 0.7138,-1.3455 0.8867,-2.092 0.2154,-0.9306 0.2327,-1.9211 0.0141,-2.9117 -0.2189,-0.9924 -0.6512,-1.8834 -1.2364,-2.6334 -0.4721,-0.6053 -1.0442,-1.1204 -1.6856,-1.5256 z m -2.4123,1.742 c 0.2769,-1.1934 0.8183,-2.3056 1.5723,-3.2529 l 10e-4,0.001 c 0.2246,-0.2829 0.6245,-0.3802 0.9604,-0.2124 1.0833,0.542 2.0428,1.3218 2.7953,2.2863 0.7251,0.929 1.2599,2.0312 1.5306,3.2582 0.2713,1.2289 0.2512,2.4524 -0.0141,3.5979 -0.2767,1.1944 -0.8187,2.306 -1.5724,3.2535 l -10e-4,-9e-4 c -0.2246,0.2829 -0.6245,0.3801 -0.9604,0.2123 -1.0834,-0.542 -2.0428,-1.3214 -2.795,-2.2859 -0.7251,-0.9293 -1.2599,-2.0315 -1.5309,-3.2585 -0.271,-1.2289 -0.2513,-2.4531 0.0141,-3.5986 z"
         style="fill:#663333;fill-rule:evenodd"
         id="path155"
         inkscape:connector-curvature="0" />
      <path
         d="m 336.9257,141.1007 c -1.6528,-1.376 -3.8886,-2.0224 -6.1625,-1.5727 -2.2738,0.4497 -4.0952,1.8987 -5.0997,3.8002 1.6528,1.376 3.8887,2.0228 6.1625,1.573 2.2738,-0.4497 4.0952,-1.8989 5.0997,-3.8005 z"
         style="fill:#6cab4e;fill-rule:evenodd"
         id="path157"
         inkscape:connector-curvature="0" />
      <path
         d="m 335.8964,141.3033 c -0.6263,-0.4228 -1.3273,-0.7396 -2.0723,-0.9297 -0.9234,-0.2355 -1.9132,-0.2738 -2.9107,-0.0768 -0.998,0.1972 -1.8985,0.6094 -2.6607,1.1774 -0.6141,0.4573 -1.141,1.0181 -1.5601,1.6511 0.6267,0.4228 1.3277,0.7399 2.0723,0.93 0.9234,0.2355 1.9136,0.2741 2.9107,0.0771 0.9977,-0.197 1.897,-0.6088 2.6592,-1.1759 l -10e-4,-0.001 c 0.616,-0.4595 1.1439,-1.0203 1.5629,-1.6517 z m -1.6865,-2.449 c 1.1668,0.2976 2.2514,0.8534 3.1767,1.6143 0.3089,0.2249 0.4143,0.6487 0.2312,0.9965 -0.5668,1.0727 -1.3676,2.0155 -2.3471,2.7457 l -10e-4,-0.001 -0.002,0.001 c -0.9463,0.7051 -2.0598,1.2157 -3.2915,1.4591 -1.2323,0.2437 -2.4556,0.1961 -3.597,-0.0953 -1.1664,-0.2977 -2.2514,-0.8535 -3.1766,-1.6144 -0.309,-0.2249 -0.4144,-0.6486 -0.2312,-0.9965 0.5655,-1.0701 1.3669,-2.0127 2.3505,-2.7454 0.946,-0.7047 2.0601,-1.2157 3.2912,-1.4591 1.2323,-0.2434 2.4555,-0.196 3.5969,0.0951 z"
         style="fill:#663333;fill-rule:evenodd"
         id="path159"
         inkscape:connector-curvature="0" />
      <path
         d="m 221.8772,158.7386 c 0.4328,0 0.7841,0.3513 0.7841,0.7841 0,0.4329 -0.3513,0.7841 -0.7841,0.7841 -1.6975,0 -3.2398,-0.6878 -4.3573,-1.8013 -0.0822,-0.0818 -0.1622,-0.1662 -0.2396,-0.2528 v 26.4827 c 0,1.2599 0.5147,2.4051 1.3443,3.2347 l 0.0367,0.0392 c 0.8264,0.8064 1.9559,1.3051 3.198,1.3051 h 0.0179 c 0.4328,0 0.7841,0.3513 0.7841,0.7841 0,0.4328 -0.3513,0.7841 -0.7841,0.7841 h -0.0179 c -1.669,0 -3.187,-0.6724 -4.2964,-1.7596 l -0.0474,-0.0439 c -1.1132,-1.1131 -1.8035,-2.6506 -1.8035,-4.3437 v -30.5758 h 1.5683 c 0,1.2671 0.514,2.411 1.3424,3.2369 0.8324,0.8296 1.9845,1.3421 3.2545,1.3421 z"
         style="fill:#663333;fill-rule:evenodd"
         id="path161"
         inkscape:connector-curvature="0" />
      <path
         d="m 221.8772,148.0123 c 0.4328,0 0.7841,0.3513 0.7841,0.7841 0,0.4329 -0.3513,0.7842 -0.7841,0.7842 -1.27,0 -2.4221,0.5125 -3.2545,1.3421 -0.8284,0.8258 -1.3424,1.9697 -1.3424,3.2369 0,0.4328 -0.3513,0.7841 -0.7842,0.7841 -0.4328,0 -0.7841,-0.3513 -0.7841,-0.7841 0,-1.6978 0.6922,-3.2335 1.8079,-4.346 1.1175,-1.1135 2.6598,-1.8013 4.3573,-1.8013 z"
         style="fill:#663333;fill-rule:evenodd"
         id="path163"
         inkscape:connector-curvature="0" />
      <path
         d="m 221.8772,149.5812 c -0.4332,0 -0.7848,-0.3516 -0.7848,-0.7848 0,-0.4331 0.3516,-0.7847 0.7848,-0.7847 h 23.3884 c 0.4332,0 0.7848,0.3516 0.7848,0.7847 0,0.4332 -0.3516,0.7848 -0.7848,0.7848 z"
         style="fill:#663333;fill-rule:evenodd"
         id="path165"
         inkscape:connector-curvature="0" />
      <path
         d="m 245.2656,149.5806 c -0.4328,0 -0.7841,-0.3513 -0.7841,-0.7842 0,-0.4328 0.3513,-0.7841 0.7841,-0.7841 1.27,0 2.422,-0.5125 3.2545,-1.3421 0.8283,-0.8259 1.3424,-1.9698 1.3424,-3.2369 h 1.5683 v 16.0894 c 0,0.4329 -0.3513,0.7841 -0.7842,0.7841 -0.4328,0 -0.7841,-0.3512 -0.7841,-0.7841 v -11.9963 c -0.0775,0.0866 -0.1575,0.171 -0.2396,0.2529 -1.1176,1.1134 -2.6598,1.8013 -4.3573,1.8013 z"
         style="fill:#663333;fill-rule:evenodd"
         id="path167"
         inkscape:connector-curvature="0" />
      <path
         d="m 251.4308,143.4333 c 0,0.4328 -0.3513,0.7841 -0.7842,0.7841 -0.4328,0 -0.7841,-0.3513 -0.7841,-0.7841 0,-1.2672 -0.5141,-2.4111 -1.3424,-3.2369 -0.8325,-0.8296 -1.9845,-1.3421 -3.2545,-1.3421 h -10.1827 v 9.9421 c 0,0.4329 -0.3513,0.7842 -0.7842,0.7842 -0.4328,0 -0.7841,-0.3513 -0.7841,-0.7842 v -10.7263 c 0,-0.4328 0.3513,-0.7841 0.7841,-0.7841 h 10.9669 c 1.6975,0 3.2397,0.6878 4.3573,1.8013 1.1156,1.1125 1.8079,2.6482 1.8079,4.346 z"
         style="fill:#663333;fill-rule:evenodd"
         id="path169"
         inkscape:connector-curvature="0" />
      <path
         d="m 373.3983,160.3068 c -0.4328,0 -0.7841,-0.3512 -0.7841,-0.7841 0,-0.4328 0.3513,-0.7841 0.7841,-0.7841 1.27,0 2.422,-0.5125 3.2545,-1.3421 0.8283,-0.8259 1.3424,-1.9698 1.3424,-3.2369 h 1.5683 v 30.5758 c 0,1.6931 -0.6904,3.2306 -1.8035,4.3437 l -0.0474,0.0439 c -1.1094,1.0872 -2.6275,1.7596 -4.2964,1.7596 h -0.0179 c -0.4328,0 -0.7841,-0.3513 -0.7841,-0.7841 0,-0.4328 0.3513,-0.7841 0.7841,-0.7841 h 0.0179 c 1.242,0 2.3715,-0.4987 3.198,-1.3051 l 0.0367,-0.0392 c 0.8296,-0.8296 1.3443,-1.9748 1.3443,-3.2347 v -26.4827 c -0.0775,0.0866 -0.1575,0.171 -0.2396,0.2528 -1.1176,1.1135 -2.6598,1.8013 -4.3573,1.8013 z"
         style="fill:#663333;fill-rule:evenodd"
         id="path171"
         inkscape:connector-curvature="0" />
      <path
         d="m 373.3983,149.5806 c -0.4328,0 -0.7841,-0.3513 -0.7841,-0.7842 0,-0.4328 0.3513,-0.7841 0.7841,-0.7841 1.6975,0 3.2397,0.6878 4.3573,1.8013 1.1156,1.1125 1.8079,2.6482 1.8079,4.346 0,0.4328 -0.3513,0.7841 -0.7842,0.7841 -0.4328,0 -0.7841,-0.3513 -0.7841,-0.7841 0,-1.2672 -0.5141,-2.4111 -1.3424,-3.2369 -0.8325,-0.8296 -1.9845,-1.3421 -3.2545,-1.3421 z"
         style="fill:#663333;fill-rule:evenodd"
         id="path173"
         inkscape:connector-curvature="0" />
      <path
         d="m 373.3983,148.0117 c 0.4332,0 0.7848,0.3516 0.7848,0.7847 0,0.4332 -0.3516,0.7848 -0.7848,0.7848 h -23.3884 c -0.4332,0 -0.7848,-0.3516 -0.7848,-0.7848 0,-0.4331 0.3516,-0.7847 0.7848,-0.7847 z"
         style="fill:#663333;fill-rule:evenodd"
         id="path175"
         inkscape:connector-curvature="0" />
      <path
         d="m 350.0099,148.0123 c 0.4328,0 0.7841,0.3513 0.7841,0.7841 0,0.4329 -0.3513,0.7842 -0.7841,0.7842 -1.6975,0 -3.2398,-0.6879 -4.3573,-1.8013 -0.0822,-0.0819 -0.1622,-0.1663 -0.2396,-0.2529 v 11.9963 c 0,0.4329 -0.3513,0.7841 -0.7842,0.7841 -0.4328,0 -0.7841,-0.3512 -0.7841,-0.7841 v -16.0894 h 1.5683 c 0,1.2671 0.514,2.411 1.3424,3.2369 0.8324,0.8296 1.9845,1.3421 3.2545,1.3421 z"
         style="fill:#663333;fill-rule:evenodd"
         id="path177"
         inkscape:connector-curvature="0" />
      <path
         d="m 345.413,143.4333 c 0,0.4328 -0.3513,0.7841 -0.7842,0.7841 -0.4328,0 -0.7841,-0.3513 -0.7841,-0.7841 0,-1.6978 0.6922,-3.2335 1.8079,-4.346 1.1175,-1.1135 2.6598,-1.8013 4.3573,-1.8013 h 10.9668 c 0.4329,0 0.7842,0.3513 0.7842,0.7841 v 10.7263 c 0,0.4329 -0.3513,0.7842 -0.7842,0.7842 -0.4328,0 -0.7841,-0.3513 -0.7841,-0.7842 v -9.9421 h -10.1827 c -1.27,0 -2.4221,0.5125 -3.2545,1.3421 -0.8284,0.8258 -1.3424,1.9697 -1.3424,3.2369 z"
         style="fill:#663333;fill-rule:evenodd"
         id="path179"
         inkscape:connector-curvature="0" />
      <path
         d="m 297.6376,68.7449 c -2.3382,2.6399 -3.4569,3.3232 -3.0742,6.9385 0.2257,2.1308 1.3842,4.7277 1.8471,7.4932 0.1322,0.7914 0.2632,1.8896 0.3978,2.6768 h 0.8293 0.8293 c 0.1347,-0.7872 0.2657,-1.8854 0.3979,-2.6768 0.4629,-2.7655 1.6214,-5.3624 1.8471,-7.4932 0.3827,-3.6153 -0.736,-4.2986 -3.0743,-6.9385 z"
         style="fill:#edc02d;fill-rule:evenodd"
         id="path181"
         inkscape:connector-curvature="0" />
      <path
         d="m 297.6377,69.9156 -0.2029,0.223 c -1.6395,1.7995 -2.3938,2.6281 -2.0936,5.4651 0.1075,1.0166 0.4632,2.2097 0.8424,3.4825 0.3714,1.2468 0.7657,2.5688 0.9987,3.9618 0.0646,0.3873 0.1299,0.85 0.1945,1.3132 0.0332,0.2378 0.0668,0.4765 0.1007,0.7079 h 0.1602 0.16 c 0.0342,-0.2318 0.0677,-0.4704 0.101,-0.7085 0.0646,-0.463 0.1298,-0.9256 0.1941,-1.3126 0.2331,-1.3927 0.627,-2.7144 0.9987,-3.9608 0.3792,-1.2735 0.7349,-2.4666 0.8425,-3.4835 0.3001,-2.837 -0.4542,-3.6656 -2.0937,-5.4654 z m -1.3609,-0.8308 c 0.2785,-0.3055 0.5856,-0.6427 0.7684,-0.8491 0.0229,-0.0266 0.048,-0.0521 0.075,-0.0759 0.3231,-0.2857 0.8168,-0.2556 1.1025,0.0674 0.1926,0.2174 0.4909,0.5449 0.7757,0.8573 1.9625,2.1541 2.8652,3.1456 2.4913,6.6786 -0.1248,1.1796 -0.4987,2.4333 -0.8971,3.7713 -0.3594,1.206 -0.7408,2.4854 -0.956,3.7708 -0.0624,0.3757 -0.1254,0.8223 -0.1878,1.2699 -0.0681,0.4865 -0.1371,0.9761 -0.2027,1.3666 -0.0439,0.3915 -0.376,0.6957 -0.7791,0.6957 h -0.8293 -0.8293 v -9e-4 c -0.3751,3e-4 -0.7069,-0.2695 -0.7719,-0.6515 -0.0677,-0.3971 -0.1392,-0.9046 -0.2098,-1.4092 -0.0624,-0.4476 -0.1251,-0.894 -0.1882,-1.2706 -0.2152,-1.2857 -0.5966,-2.5651 -0.956,-3.7717 -0.3983,-1.3374 -0.7722,-2.5911 -0.8971,-3.7704 -0.3738,-3.5327 0.5289,-4.5245 2.4914,-6.6783 z"
         style="fill:#663333;fill-rule:evenodd"
         id="path183"
         inkscape:connector-curvature="0" />
      <path
         d="m 297.6377,100.9337 c -0.8691,-0.6038 -1.9625,-1.9001 -2.3047,-2.4434 -0.6634,-1.0535 -0.9773,-2.1623 -0.7697,-3.3711 0.2258,-1.3114 1.3842,-2.9095 1.8471,-4.6116 0.0474,-0.1738 0.0944,-0.3714 0.1415,-0.5762 h 2.1717 c 0.047,0.2048 0.0941,0.4024 0.1411,0.5762 0.463,1.7021 1.6216,3.3002 1.8471,4.6116 0.208,1.2088 -0.106,2.3176 -0.7697,3.3711 -0.3418,0.5433 -1.4356,1.8396 -2.3044,2.4434 z"
         style="fill:#edc02d;fill-rule:evenodd"
         id="path185"
         inkscape:connector-curvature="0" />
      <path
         d="m 297.1792,101.5666 c -0.4294,-0.2995 -0.8892,-0.7283 -1.2989,-1.1624 -0.5316,-0.5633 -1.0021,-1.1605 -1.2169,-1.5014 -0.373,-0.5922 -0.6502,-1.2098 -0.8071,-1.8594 -0.1599,-0.6621 -0.1919,-1.3449 -0.0705,-2.0525 0.1342,-0.7813 0.5231,-1.5833 0.9375,-2.4396 0.3478,-0.7182 0.717,-1.4804 0.9249,-2.2454 l 0.0662,-0.2516 -0.002,-3e-4 0.0706,-0.2998 c 0.0847,-0.3607 0.4096,-0.6041 0.7685,-0.6038 v -0.001 h 2.1717 c 0.3971,0 0.7258,0.2905 0.7816,0.6681 0.0367,0.1581 0.0762,0.3196 0.1217,0.4884 0.208,0.7647 0.5771,1.5265 0.925,2.2451 0.414,0.855 0.8023,1.6567 0.9369,2.4368 h 6e-4 c 0.122,0.7088 0.09,1.3926 -0.0703,2.0556 -0.1571,0.6499 -0.4344,1.2672 -0.8073,1.8594 -0.2142,0.3406 -0.685,0.9375 -1.216,1.5008 -0.4125,0.4372 -0.8758,0.8688 -1.3077,1.1687 -0.281,0.1941 -0.6451,0.1816 -0.9089,-0.006 z m -0.1446,-2.2256 c 0.1976,0.2092 0.4033,0.413 0.6031,0.5918 0.1998,-0.1788 0.4059,-0.3826 0.6038,-0.5925 0.4626,-0.4908 0.8594,-0.9896 1.031,-1.2624 0.2904,-0.4611 0.5025,-0.9259 0.616,-1.3952 0.1104,-0.4566 0.1317,-0.9328 0.0458,-1.4321 h 6e-4 l -6e-4,-0.0031 c -0.0982,-0.5712 -0.4385,-1.2741 -0.802,-2.0247 -0.3827,-0.7897 -0.7882,-1.6272 -1.0285,-2.5095 h -0.9325 c -0.2402,0.8823 -0.6461,1.7204 -1.0284,2.5099 -0.3629,0.7502 -0.7039,1.4537 -0.802,2.0243 -0.086,0.5002 -0.0647,0.9776 0.0461,1.4352 0.1132,0.4693 0.3252,0.9341 0.6157,1.3952 0.1718,0.2725 0.5689,0.7722 1.0319,1.2631 z"
         style="fill:#663333;fill-rule:evenodd"
         id="path187"
         inkscape:connector-curvature="0" />
      <path
         d="m 288.0647,82.4577 c -0.5946,-2.3255 4.0026,-4.0628 5.8051,0.7333 0.4407,1.1718 0.6063,2.1105 0.7302,2.6623 h 1.3732 c -0.0402,-2.1141 -0.6333,-4.8259 -1.8333,-6.312 -3.543,-4.388 -8.1791,-2.9367 -9.6314,0.2051 -1.6215,3.5086 1.0222,7.0381 4.692,6.5795 2.517,-0.3149 3.2802,-3.1428 1.9026,-4.3177 -0.8801,-0.7499 -2.5211,-0.8466 -3.0384,0.4495 z"
         style="fill:#edc02d;fill-rule:evenodd"
         id="path189"
         inkscape:connector-curvature="0" />
      <path
         d="m 287.3051,82.6506 c -0.2557,-0.9993 0.1298,-1.9161 0.8679,-2.534 0.36,-0.3011 0.806,-0.5289 1.2991,-0.6524 0.4805,-0.1208 1.0103,-0.1437 1.5513,-0.0411 1.3415,0.2543 2.7457,1.2753 3.5785,3.4922 0.2183,0.5802 0.3717,1.1025 0.4865,1.5526 -0.0857,-0.6756 -0.2234,-1.3701 -0.4147,-2.0291 -0.2735,-0.9422 -0.6546,-1.8019 -1.1433,-2.4072 -0.7897,-0.9783 -1.6309,-1.6329 -2.4671,-2.0193 -0.8648,-0.3996 -1.7273,-0.5129 -2.5209,-0.4043 -0.7882,0.1079 -1.5152,0.4359 -2.1137,0.919 -0.5134,0.4143 -0.9309,0.9444 -1.2094,1.5472 -0.3629,0.7854 -0.4746,1.5686 -0.3849,2.2869 0.0794,0.6357 0.3171,1.2219 0.6766,1.7134 0.3607,0.4931 0.8446,0.8943 1.4152,1.1577 0.6304,0.2914 1.3732,0.4166 2.1792,0.3159 0.6273,-0.0784 1.1038,-0.3595 1.4203,-0.7305 0.1822,-0.2136 0.3139,-0.4586 0.3911,-0.7104 0.0746,-0.2437 0.0985,-0.4969 0.0687,-0.7359 -0.0377,-0.3026 -0.1669,-0.5777 -0.3908,-0.7687 -0.1195,-0.102 -0.2613,-0.1857 -0.4125,-0.2459 -0.2421,-0.0966 -0.5081,-0.1365 -0.7515,-0.1026 -0.1963,0.0273 -0.3754,0.1092 -0.4997,0.255 -0.0542,0.0637 -0.1022,0.1437 -0.1405,0.2396 -0.1606,0.4006 -0.6163,0.5953 -1.0168,0.4348 -0.2409,-0.0967 -0.4072,-0.2999 -0.4667,-0.5336 z m 5.8327,0.8161 c -0.5254,-1.398 -1.2929,-2.13 -2.0501,-2.4082 0.1888,0.1013 0.3657,0.2205 0.5238,0.3553 0.5386,0.4595 0.845,1.0897 0.9297,1.7675 0.0558,0.4497 0.0116,0.9255 -0.1295,1.385 -0.1384,0.4508 -0.3724,0.8874 -0.6973,1.2681 -0.5533,0.6487 -1.3672,1.138 -2.4189,1.2694 -1.1053,0.138 -2.1372,-0.0398 -3.0249,-0.4501 -0.8151,-0.3764 -1.5064,-0.9491 -2.0218,-1.6539 -0.5165,-0.706 -0.8572,-1.5441 -0.9701,-2.4487 -0.1239,-0.9924 0.026,-2.0657 0.5191,-3.1324 0.3798,-0.8221 0.9498,-1.5448 1.6505,-2.1106 0.8126,-0.6558 1.805,-1.1025 2.8859,-1.2502 1.0758,-0.1471 2.2347,0.0016 3.3846,0.5329 1.0432,0.4821 2.0783,1.2806 3.0305,2.4603 0.6251,0.7741 1.0978,1.8239 1.4256,2.953 0.3585,1.2349 0.5488,2.5829 0.5777,3.7629 0.003,0.0286 0.005,0.0571 0.005,0.0863 0,0.4328 -0.3513,0.7841 -0.7841,0.7841 H 294.6 v -6e-4 c -0.3613,3e-4 -0.6863,-0.251 -0.7656,-0.6182 l -0.0609,-0.2804 h 7e-4 l -7e-4,-0.0029 c -0.1154,-0.542 -0.2845,-1.3346 -0.6357,-2.2686 z"
         style="fill:#663333;fill-rule:evenodd"
         id="path191"
         inkscape:connector-curvature="0" />
      <path
         d="m 307.2104,82.4577 c 0.5944,-2.3255 -4.0025,-4.0628 -5.8051,0.7333 -0.4407,1.1718 -0.6063,2.1105 -0.7302,2.6623 h -1.3734 c 0.0404,-2.1141 0.6335,-4.8259 1.8336,-6.312 3.543,-4.388 8.1791,-2.9367 9.631,0.2051 1.6219,3.5086 -1.0219,7.0381 -4.6916,6.5795 -2.5171,-0.3149 -3.2802,-3.1428 -1.9026,-4.3177 0.8801,-0.7499 2.5211,-0.8466 3.0383,0.4495 z"
         style="fill:#edc02d;fill-rule:evenodd"
         id="path193"
         inkscape:connector-curvature="0" />
      <path
         d="m 307.1019,80.1166 c 0.7386,0.6179 1.1235,1.5347 0.8682,2.534 l -0.002,-7e-4 c -0.0596,0.2337 -0.2258,0.4369 -0.4667,0.5336 -0.4006,0.1605 -0.8563,-0.0342 -1.0169,-0.4348 -0.0383,-0.0959 -0.0862,-0.1759 -0.1405,-0.2396 -0.1242,-0.1458 -0.3033,-0.2277 -0.4997,-0.255 -0.2433,-0.0339 -0.5093,0.006 -0.7515,0.1026 -0.1511,0.0602 -0.2929,0.1439 -0.4124,0.2459 -0.224,0.191 -0.3532,0.4661 -0.3908,0.7687 -0.0298,0.239 -0.006,0.4922 0.0687,0.7359 0.0771,0.2518 0.2089,0.4968 0.3911,0.7104 0.3165,0.371 0.7929,0.6521 1.4202,0.7305 0.8064,0.1007 1.5491,-0.0245 2.1796,-0.3159 0.5705,-0.2634 1.0545,-0.6649 1.4149,-1.158 0.3597,-0.4918 0.5972,-1.0777 0.6765,-1.7131 0.0897,-0.718 -0.0223,-1.5012 -0.3852,-2.2869 -0.2785,-0.6028 -0.6959,-1.1329 -1.2094,-1.5472 -0.5978,-0.4827 -1.3252,-0.8108 -2.1134,-0.9187 -0.7935,-0.1089 -1.6558,0.0044 -2.5202,0.4037 -0.8365,0.3867 -1.6777,1.0413 -2.4678,2.0196 -0.4887,0.6053 -0.8698,1.465 -1.1433,2.4072 -0.1913,0.6593 -0.329,1.3531 -0.4146,2.0291 0.1151,-0.4501 0.2682,-0.9724 0.4865,-1.5526 0.833,-2.2172 2.2369,-3.2379 3.5781,-3.4922 0.5411,-0.1026 1.0708,-0.0797 1.5513,0.0411 0.4928,0.1235 0.9394,0.3509 1.2992,0.6524 z m -2.9142,0.9419 c -0.7571,0.2779 -1.5253,1.0099 -2.0503,2.4082 -0.3513,0.934 -0.5204,1.7266 -0.6358,2.2686 l -6e-4,0.0029 h 6e-4 l -0.0608,0.2804 c -0.0794,0.3672 -0.4043,0.6185 -0.7657,0.6182 v 6e-4 h -1.3734 c -0.4329,0 -0.7842,-0.3513 -0.7842,-0.7841 0,-0.0292 0.002,-0.0577 0.005,-0.0863 0.0289,-1.1803 0.2196,-2.528 0.5781,-3.7629 0.3278,-1.1291 0.8004,-2.1789 1.4255,-2.953 0.9526,-1.1797 1.9877,-1.9782 3.0312,-2.4606 1.1495,-0.531 2.3085,-0.6797 3.384,-0.5323 1.0805,0.1477 2.0732,0.5941 2.8856,1.2499 0.7007,0.5658 1.2706,1.2885 1.6504,2.1106 0.4928,1.0667 0.6433,2.1403 0.5194,3.1324 -0.1129,0.9046 -0.4535,1.7424 -0.9701,2.4484 -0.515,0.7045 -1.2063,1.2775 -2.0215,1.6542 -0.8876,0.4103 -1.9195,0.5881 -3.0252,0.4501 -1.0516,-0.1314 -1.8656,-0.6207 -2.4189,-1.2694 -0.3249,-0.3807 -0.5589,-0.8173 -0.6972,-1.2681 -0.1411,-0.4595 -0.1854,-0.9353 -0.1295,-1.385 0.0846,-0.6778 0.3911,-1.308 0.9296,-1.7675 0.1584,-0.1348 0.335,-0.254 0.5241,-0.3553 z"
         style="fill:#663333;fill-rule:evenodd"
         id="path195"
         inkscape:connector-curvature="0" />
      <path
         d="m 292.4606,90.5772 c 1.1263,0 2.039,0.913 2.039,2.039 0,1.1264 -0.9127,2.0394 -2.039,2.0394 -1.126,0 -2.0391,-0.913 -2.0391,-2.0394 0,-1.126 0.9131,-2.039 2.0391,-2.039 z"
         style="fill:#edc02d;fill-rule:evenodd"
         id="path197"
         inkscape:connector-curvature="0" />
      <path
         d="m 292.4606,89.7931 c 0.7794,0 1.4861,0.3164 1.9964,0.8267 v 0.0032 c 0.5103,0.5109 0.8268,1.216 0.8268,1.9932 0,0.7776 -0.3165,1.4827 -0.8268,1.9936 v 0.0032 c -0.5103,0.5103 -1.217,0.8267 -1.9964,0.8267 -0.7773,0 -1.4823,-0.3164 -1.9933,-0.8267 l -0.003,-0.0032 c -0.5103,-0.5109 -0.8268,-1.2163 -0.8268,-1.9936 0,-0.7772 0.3165,-1.4823 0.8268,-1.9932 l 0.003,-0.0032 c 0.511,-0.5103 1.216,-0.8267 1.9933,-0.8267 z m 0.8889,1.9342 -0.002,0.0016 c -0.2268,-0.2268 -0.541,-0.3676 -0.8873,-0.3676 -0.3469,0 -0.6606,0.1396 -0.8873,0.3645 l -0.003,0.0031 c -0.2249,0.2268 -0.3644,0.5404 -0.3644,0.8873 0,0.3469 0.1395,0.6612 0.3644,0.8877 l 0.003,0.0031 c 0.2267,0.2249 0.5404,0.3645 0.8873,0.3645 0.3463,0 0.6605,-0.1409 0.8873,-0.3676 l 0.002,0.0015 c 0.2258,-0.2267 0.366,-0.5413 0.366,-0.8892 0,-0.3475 -0.1402,-0.6618 -0.366,-0.8889 z"
         style="fill:#663333;fill-rule:evenodd"
         id="path199"
         inkscape:connector-curvature="0" />
      <path
         d="m 302.8146,90.5772 c 1.126,0 2.039,0.913 2.039,2.039 0,1.1264 -0.913,2.0394 -2.039,2.0394 -1.1264,0 -2.0391,-0.913 -2.0391,-2.0394 0,-1.126 0.9127,-2.039 2.0391,-2.039 z"
         style="fill:#edc02d;fill-rule:evenodd"
         id="path201"
         inkscape:connector-curvature="0" />
      <path
         d="m 302.8146,89.7931 c 0.7772,0 1.4823,0.3164 1.9932,0.8267 l 0.003,0.0032 c 0.5103,0.5109 0.8268,1.216 0.8268,1.9932 0,0.7773 -0.3165,1.4827 -0.8268,1.9936 l -0.003,0.0032 c -0.5109,0.5103 -1.216,0.8267 -1.9932,0.8267 -0.7795,0 -1.4861,-0.3164 -1.9964,-0.8267 v -0.0032 c -0.5103,-0.5109 -0.8268,-1.216 -0.8268,-1.9936 0,-0.7772 0.3165,-1.4823 0.8268,-1.9932 v -0.0032 c 0.5103,-0.5103 1.2169,-0.8267 1.9964,-0.8267 z m 0.8904,1.9358 -0.003,-0.0031 c -0.2268,-0.2249 -0.5404,-0.3645 -0.8873,-0.3645 -0.3463,0 -0.6606,0.1408 -0.8874,0.3676 l -0.002,-0.0016 c -0.2259,0.2271 -0.3661,0.5414 -0.3661,0.8889 0,0.3479 0.1402,0.6625 0.3661,0.8892 l 0.002,-0.0015 c 0.2268,0.2267 0.5411,0.3676 0.8874,0.3676 0.3469,0 0.6605,-0.1396 0.8873,-0.3645 l 0.003,-0.0031 c 0.2249,-0.2265 0.3645,-0.5408 0.3645,-0.8877 0,-0.3469 -0.1396,-0.6605 -0.3645,-0.8873 z"
         style="fill:#663333;fill-rule:evenodd"
         id="path203"
         inkscape:connector-curvature="0" />
      <path
         d="m 293.7393,85.8533 h 7.7131 c 1.1216,0 2.039,0.9174 2.039,2.039 v 0 c 0,1.1216 -0.9174,2.0391 -2.039,2.0391 h -7.7131 c -1.1216,0 -2.039,-0.9175 -2.039,-2.0391 v 0 c 0,-1.1216 0.9174,-2.039 2.039,-2.039 z"
         style="fill:#edc02d;fill-rule:evenodd"
         id="path205"
         inkscape:connector-curvature="0" />
      <path
         d="m 293.7393,85.0691 h 7.7131 c 0.775,0 1.4804,0.3174 1.9917,0.8284 l 0.003,0.0031 c 0.5109,0.5113 0.8284,1.2167 0.8284,1.9917 0,0.7773 -0.3175,1.4836 -0.8284,1.9945 -0.5113,0.5113 -1.2176,0.8287 -1.9948,0.8287 h -7.7131 c -0.7772,0 -1.4835,-0.3174 -1.9948,-0.8287 -0.5109,-0.5109 -0.8283,-1.2172 -0.8283,-1.9945 0,-0.775 0.3174,-1.4804 0.8283,-1.9917 l 0.003,-0.0031 c 0.5113,-0.511 1.2167,-0.8284 1.9917,-0.8284 z m 7.7131,1.5683 h -7.7131 c -0.3447,0 -0.6583,0.1405 -0.8857,0.366 l -0.003,0.0032 c -0.2256,0.2274 -0.3661,0.541 -0.3661,0.8857 0,0.3441 0.1415,0.6577 0.3692,0.8855 0.2277,0.2277 0.5417,0.3694 0.8857,0.3694 h 7.7131 c 0.344,0 0.658,-0.1417 0.8857,-0.3694 0.2277,-0.2278 0.3692,-0.5414 0.3692,-0.8855 0,-0.3447 -0.1405,-0.6583 -0.366,-0.8857 l -0.003,-0.0032 c -0.2274,-0.2255 -0.541,-0.366 -0.8857,-0.366 z"
         style="fill:#663333;fill-rule:evenodd"
         id="path207"
         inkscape:connector-curvature="0" />
    </g>
  </g>
</svg>
