<?xml version="1.0" encoding="UTF-8" standalone="no"?>
<!-- Created with Inkscape (http://www.inkscape.org/) -->

<svg
   xmlns:dc="http://purl.org/dc/elements/1.1/"
   xmlns:cc="http://creativecommons.org/ns#"
   xmlns:rdf="http://www.w3.org/1999/02/22-rdf-syntax-ns#"
   xmlns:svg="http://www.w3.org/2000/svg"
   xmlns="http://www.w3.org/2000/svg"
   xmlns:sodipodi="http://sodipodi.sourceforge.net/DTD/sodipodi-0.dtd"
   xmlns:inkscape="http://www.inkscape.org/namespaces/inkscape"
   width="200"
   height="166"
   viewBox="0 0 52.916665 43.920834"
   version="1.1"
   id="svg5744"
   inkscape:version="0.92.5 (2060ec1f9f, 2020-04-08)"
   sodipodi:docname="logo.svg">
  <defs
     id="defs5738" />
  <sodipodi:namedview
     id="base"
     pagecolor="#ffffff"
     bordercolor="#666666"
     borderopacity="1.0"
     inkscape:pageopacity="0.0"
     inkscape:pageshadow="2"
     inkscape:zoom="1.4"
     inkscape:cx="-39.117251"
     inkscape:cy="66.616504"
     inkscape:document-units="mm"
     inkscape:current-layer="layer1"
     showgrid="false"
     units="px"
     inkscape:window-width="1366"
     inkscape:window-height="704"
     inkscape:window-x="0"
     inkscape:window-y="27"
     inkscape:window-maximized="1" />
  <metadata
     id="metadata5741">
    <rdf:RDF>
      <cc:Work
         rdf:about="">
        <dc:format>image/svg+xml</dc:format>
        <dc:type
           rdf:resource="http://purl.org/dc/dcmitype/StillImage" />
        <dc:title></dc:title>
      </cc:Work>
    </rdf:RDF>
  </metadata>
  <g
     inkscape:label="Layer 1"
     inkscape:groupmode="layer"
     id="layer1"
     transform="translate(0,-253.07915)">
    <g
       id="g6338"
       transform="matrix(1.3402383,0,0,1.3402383,-9.0021844,-89.651674)" />
    <g
       id="g7216">
      <g
         id="g7151"
         style=""
         transform="matrix(1.3402383,0,0,1.3402383,-9.0021844,-89.651675)">
        <g
           transform="matrix(0.33719913,0,0,-0.33719913,26.458472,258.39854)"
           id="g130">
          <path
             inkscape:connector-curvature="0"
             id="path132"
             style="fill:#d94733;fill-opacity:1;fill-rule:nonzero;stroke:none"
             d="M 0,0 C 0.193,-0.433 1.662,-3.316 6.191,-2.705 5.882,-2.744 6.106,-5.232 6.028,-6.477 5.982,-7.188 5.719,-7.76 5.364,-8.216 5.016,-8.656 4.885,-8.741 4.452,-8.401 3.779,-7.876 2.991,-7.466 2.133,-7.366 1.36,-7.273 0.958,-8.247 0,-8.262 c -0.958,0.015 -1.36,0.989 -2.133,0.896 -0.858,-0.1 -1.646,-0.51 -2.319,-1.035 -0.433,-0.34 -0.564,-0.255 -0.912,0.185 -0.355,0.456 -0.618,1.028 -0.664,1.739 -0.078,1.245 0.146,3.733 -0.163,3.772 C -1.662,-3.316 -0.193,-0.433 0,0 m -9.545,-10.372 c 0.688,-0.402 2.017,-0.487 2.682,-0.441 0.077,0 0.108,-0.092 0.062,-0.139 -0.619,-0.618 -1.198,-1.082 -1.871,-1.375 -0.185,-0.078 -0.27,-0.302 -0.17,-0.48 0.773,-1.337 2.651,-1.267 2.651,-1.267 0,0 -5.271,-10.333 6.191,-10.349 11.462,0.016 6.191,10.349 6.191,10.349 0,0 1.878,-0.07 2.651,1.267 0.1,0.178 0.015,0.402 -0.17,0.48 -0.673,0.293 -1.252,0.757 -1.871,1.375 -0.046,0.047 -0.015,0.139 0.062,0.139 0.665,-0.046 1.994,0.039 2.682,0.441 1.074,0.634 1.492,2.118 0.889,3.223 -0.224,0.417 -0.557,0.765 -0.703,1.213 -0.217,0.634 -0.008,1.276 0.085,1.909 0.1,0.773 0.015,1.531 -0.495,2.149 -0.24,0.294 -0.526,0.549 -0.75,0.866 C 7.837,0.031 7.907,1.43 7.582,2.666 7.335,3.602 6.392,6.515 2.844,6.624 1.345,6.67 0.162,6.044 0,6.005 -0.162,6.044 -1.345,6.67 -2.844,6.624 -6.392,6.515 -7.335,3.602 -7.582,2.666 -7.907,1.43 -7.837,0.031 -8.571,-1.012 c -0.224,-0.317 -0.51,-0.572 -0.75,-0.866 -0.51,-0.618 -0.595,-1.376 -0.495,-2.149 0.093,-0.633 0.302,-1.275 0.085,-1.909 -0.146,-0.448 -0.479,-0.796 -0.703,-1.213 -0.603,-1.105 -0.185,-2.589 0.889,-3.223" />
        </g>
        <path
           d="m 23.14866,269.64923 c -0.08868,0.42757 0.263353,0.51355 0.263353,0.51355 h 3.046594 3.046257 c 0,0 0.352035,-0.086 0.263352,-0.51355 -0.09374,-0.45353 -0.839289,-1.53223 -2.588003,-1.68364 l 0.04721,-0.21884 c 0.04417,-0.18748 -0.01315,-0.28156 -0.156461,-0.28156 h -0.612353 -0.612691 c -0.14331,0 -0.200634,0.0941 -0.156123,0.28156 l 0.04687,0.21884 c -1.748714,0.15141 -2.494262,1.23011 -2.588003,1.68364"
           style="fill:#d94733;fill-opacity:1;fill-rule:nonzero;stroke:none;stroke-width:0.33719912"
           id="path136"
           inkscape:connector-curvature="0" />
        <g
           transform="matrix(0.33719913,0,0,-0.33719913,36.734447,272.27881)"
           id="g138">
          <path
             inkscape:connector-curvature="0"
             id="path140"
             style="fill:#d94733;fill-opacity:1;fill-rule:nonzero;stroke:none"
             d="m 0,0 c -0.951,-3.462 -2.187,-6.461 -4.065,-7.659 -1.963,-1.26 -6.222,-0.711 -6.222,-0.711 l -2.373,-1.847 v -3.355 c 0,-0.324 -0.263,-0.579 -0.579,-0.579 h -3.27 c -0.317,0 -0.579,0.255 -0.579,0.579 v 3.355 l -3.316,2.117 c -0.325,0.209 -0.549,0.549 -0.595,0.928 l -0.843,5.935 c -0.03,0.217 -0.216,0.379 -0.432,0.379 h -16.401 c -0.216,0 -0.402,-0.162 -0.433,-0.379 l -0.842,-5.935 c -0.046,-0.379 -0.271,-0.719 -0.595,-0.928 l -3.316,-2.117 v -3.355 c 0,-0.324 -0.263,-0.579 -0.579,-0.579 h -3.27 c -0.317,0 -0.579,0.255 -0.579,0.579 v 3.355 l -2.373,1.847 c 0,0 -4.259,-0.549 -6.222,0.711 -1.878,1.198 -3.114,4.197 -4.065,7.659 0,0 1.492,8.749 6.492,16.485 5.001,7.737 9.043,10.473 11.485,9.167 3.269,-1.755 -0.943,-13.131 -2.829,-19.376 h -8.084 c -0.448,0 -0.819,-0.371 -0.819,-0.819 V 3.671 c 0,-0.448 0.371,-0.819 0.819,-0.819 h 46.821 c 0.448,0 0.819,0.371 0.819,0.819 v 1.786 c 0,0.448 -0.371,0.819 -0.819,0.819 h -8.084 c -1.886,6.245 -6.098,17.621 -2.829,19.376 2.442,1.306 6.484,-1.43 11.485,-9.167 C -1.492,8.749 0,0 0,0" />
        </g>
      </g>
      <g
         transform="matrix(0.33719913,0,0,-0.33719913,14.645611,285.69889)"
         id="g142">
        <path
           inkscape:connector-curvature="0"
           id="path144"
           style="fill:#000000;fill-opacity:1;fill-rule:nonzero;stroke:none"
           d="m 0,0 v -16.033 h -4.008 v 12.436 h -6.014 v -12.436 h -4.007 v 12.436 h -6.014 v -12.436 h -4.008 V 0 Z" />
      </g>
      <g
         transform="matrix(0.33719913,0,0,-0.33719913,27.365099,285.69889)"
         id="g146">
        <path
           inkscape:connector-curvature="0"
           id="path148"
           style="fill:#000000;fill-opacity:1;fill-rule:nonzero;stroke:none"
           d="m 0,0 v -16.033 h -4.01 v 12.436 h -6.012 v -5.422 c 0,-3.875 -3.139,-7.014 -7.014,-7.014 v 4.008 c 1.66,0 3.007,1.346 3.007,3.006 V 0 Z" />
      </g>
      <g
         transform="matrix(0.33719913,0,0,-0.33719913,32.062687,289.46119)"
         id="g150">
        <path
           inkscape:connector-curvature="0"
           id="path152"
           style="fill:#000000;fill-opacity:1;fill-rule:nonzero;stroke:none"
           d="M 0,0 C 0,1.66 -1.346,3.007 -3.007,3.007 -4.667,3.007 -6.014,1.66 -6.014,0 V -1.279 H 0 Z m 4.008,-0.366 v -4.51 h -14.03 v 16.034 h 4.008 V 5.963 c 0.913,0.434 1.93,0.685 3.007,0.685 3.875,0 7.015,-3.141 7.015,-7.014" />
      </g>
      <g
         transform="matrix(0.33719913,0,0,-0.33719913,39.674621,285.69889)"
         id="g154">
        <path
           inkscape:connector-curvature="0"
           id="path156"
           style="fill:#000000;fill-opacity:1;fill-rule:nonzero;stroke:none"
           d="m 0,0 v -16.033 h -4.008 v 6.434 h -8.017 v -6.434 h -4.008 V 0 h 4.008 v -6.012 h 8.017 V 0 Z" />
      </g>
      <g
         transform="matrix(0.33719913,0,0,-0.33719913,49.374693,287.726)"
         id="g158">
        <path
           inkscape:connector-curvature="0"
           id="path160"
           style="fill:#000000;fill-opacity:1;fill-rule:nonzero;stroke:none"
           d="M 0,0 V -0.35 L 5.999,0 C 7.261,1.675 8.018,3.753 8.018,6.012 H 4.01 C 4.01,3.395 2.488,0.375 0,0" />
      </g>
      <g
         transform="matrix(0.33719913,0,0,-0.33719913,48.861847,287.726)"
         id="g162">
        <path
           inkscape:connector-curvature="0"
           id="path164"
           style="fill:#000000;fill-opacity:1;fill-rule:nonzero;stroke:none"
           d="M 0,0 V 0.35 6.012 H -4.008 V -10.022 H 0 v 6.435 h 8.018 v -6.435 h 4.007 V 0 H 5.999 Z" />
      </g>
      <g
         transform="matrix(0.33719913,0,0,-0.33719913,2.8837677,291.28557)"
         id="g166">
        <path
           inkscape:connector-curvature="0"
           id="path168"
           style="fill:#000000;fill-opacity:1;fill-rule:nonzero;stroke:none"
           d="m 0,0 c -4.615,0 -8.426,3.688 -8.549,8.323 -0.061,2.272 0.774,4.44 2.352,6.103 1.576,1.664 3.696,2.614 5.967,2.676 3.755,0.059 7.078,-2.207 8.305,-5.738 L 4.286,10.045 c -0.63,1.808 -2.381,3.047 -4.29,3.047 -0.038,0 -0.078,0 -0.118,-0.002 C -1.321,13.058 -2.446,12.552 -3.285,11.665 -4.124,10.78 -4.568,9.63 -4.537,8.431 -4.471,5.97 -2.448,4.012 0,4.012 c 0.04,0 0.082,0 0.122,0.002 1.844,0.051 3.46,1.195 4.118,2.918 L 7.99,5.5 C 6.749,2.255 3.704,0.097 0.23,0.002 0.152,0 0.076,0 0,0" />
      </g>
      <g
         transform="matrix(0.33719913,0,0,-0.33719913,18.393511,286.8716)"
         id="g170">
        <path
           inkscape:connector-curvature="0"
           id="path172"
           style="fill:#000000;fill-opacity:1;fill-rule:nonzero;stroke:none"
           d="m 0,0 c -2.503,0 -4.541,-2.035 -4.541,-4.539 0,-2.503 2.038,-4.539 4.541,-4.539 2.503,0 4.539,2.036 4.539,4.539 C 4.539,-2.035 2.503,0 0,0 m 0,-13.09 c -4.716,0 -8.553,3.835 -8.553,8.551 0,4.716 3.837,8.551 8.553,8.551 4.716,0 8.551,-3.835 8.551,-8.551 0,-4.716 -3.835,-8.551 -8.551,-8.551" />
      </g>
      <path
         inkscape:connector-curvature="0"
         id="path174"
         style="fill:#000000;fill-opacity:1;fill-rule:nonzero;stroke:none;stroke-width:0.33719912"
         d="m 45.085149,291.10514 h 1.351494 v -5.40632 h -1.351494 z" />
      <path
         inkscape:connector-curvature="0"
         id="path176"
         style="fill:#000000;fill-opacity:1;fill-rule:nonzero;stroke:none;stroke-width:0.33719912"
         d="m 40.836103,291.10514 h 1.351494 v -5.40632 h -1.351494 z" />
      <g
         transform="matrix(0.33719913,0,0,-0.33719913,41.147068,290.4539)"
         id="g178">
        <path
           inkscape:connector-curvature="0"
           id="path180"
           style="fill:#000000;fill-opacity:1;fill-rule:nonzero;stroke:none"
           d="m 0,0 3.1,-1.915 11.686,14.098 -3.1,1.915 z" />
      </g>
      <g
         transform="matrix(1.3714164,0,0,1.3714164,-9.8513697,-110.62911)"
         id="g6098">
        <g
           id="g182"
           transform="matrix(0.33719913,0,0,-0.33719913,13.003754,294.69592)">
          <path
             d="m 0,0 v -4.965 h -0.613 v 3.926 l -2.011,-3.322 h -0.302 l -2.011,3.332 V -4.965 H -5.55 V 0 h 0.679 L -2.766,-3.578 -0.623,0 Z"
             style="fill:#000000;fill-opacity:1;fill-rule:nonzero;stroke:none"
             id="path184"
             inkscape:connector-curvature="0" />
        </g>
        <g
           id="g186"
           transform="matrix(0.33719913,0,0,-0.33719913,13.896658,295.03181)">
          <path
             d="M 0,0 C -0.324,-0.305 -0.508,-0.703 -0.552,-1.194 H 2.969 C 2.925,-0.703 2.741,-0.305 2.417,0 2.092,0.305 1.688,0.458 1.204,0.458 0.725,0.458 0.324,0.305 0,0 m 3.602,-1.694 h -4.154 c 0.038,-0.516 0.236,-0.933 0.594,-1.251 0.359,-0.318 0.812,-0.477 1.36,-0.477 0.308,0 0.591,0.055 0.849,0.166 0.258,0.11 0.482,0.272 0.671,0.485 L 3.299,-3.205 C 3.079,-3.469 2.804,-3.67 2.473,-3.809 2.143,-3.947 1.779,-4.017 1.383,-4.017 c -0.51,0 -0.961,0.109 -1.355,0.326 -0.393,0.217 -0.7,0.518 -0.92,0.902 -0.22,0.384 -0.33,0.818 -0.33,1.302 0,0.485 0.105,0.919 0.316,1.303 0.211,0.384 0.5,0.683 0.868,0.897 0.369,0.214 0.782,0.321 1.242,0.321 0.459,0 0.871,-0.107 1.236,-0.321 C 2.805,0.499 3.092,0.202 3.299,-0.179 3.507,-0.56 3.611,-0.996 3.611,-1.487 Z"
             style="fill:#000000;fill-opacity:1;fill-rule:nonzero;stroke:none"
             id="path188"
             inkscape:connector-curvature="0" />
        </g>
        <g
           id="g190"
           transform="matrix(0.33719913,0,0,-0.33719913,16.704076,296.12029)">
          <path
             d="M 0,0 C 0.274,0.16 0.488,0.385 0.642,0.675 0.796,0.964 0.873,1.292 0.873,1.656 0.873,2.021 0.798,2.342 0.646,2.619 0.496,2.896 0.283,3.112 0.009,3.266 -0.264,3.42 -0.578,3.497 -0.93,3.497 -1.282,3.497 -1.595,3.42 -1.869,3.266 -2.143,3.112 -2.357,2.896 -2.511,2.619 -2.665,2.342 -2.742,2.021 -2.742,1.656 c 0,-0.364 0.077,-0.692 0.231,-0.981 0.154,-0.29 0.37,-0.515 0.647,-0.675 0.277,-0.161 0.588,-0.241 0.934,-0.241 0.346,0 0.656,0.08 0.93,0.241 M 0.406,3.794 C 0.768,3.59 1.049,3.304 1.251,2.936 1.452,2.567 1.553,2.147 1.553,1.675 1.553,1.191 1.447,0.761 1.237,0.387 1.026,0.012 0.731,-0.279 0.354,-0.486 c -0.377,-0.208 -0.812,-0.312 -1.303,-0.312 -0.824,0 -1.463,0.29 -1.916,0.869 -0.453,0.578 -0.679,1.378 -0.679,2.397 0,1.064 0.202,1.879 0.608,2.445 0.406,0.566 1.04,0.95 1.902,1.152 L 1.194,6.575 1.308,5.961 -0.788,5.479 C -1.5,5.322 -2.021,5.044 -2.355,4.644 -2.689,4.245 -2.871,3.654 -2.903,2.874 c 0.202,0.384 0.482,0.685 0.84,0.902 0.359,0.217 0.771,0.326 1.237,0.326 0.459,0 0.87,-0.103 1.232,-0.308"
             style="fill:#000000;fill-opacity:1;fill-rule:nonzero;stroke:none"
             id="path192"
             inkscape:connector-curvature="0" />
        </g>
        <g
           id="g194"
           transform="matrix(0.33719913,0,0,-0.33719913,17.961323,295.03181)">
          <path
             d="M 0,0 C -0.324,-0.305 -0.508,-0.703 -0.552,-1.194 H 2.969 C 2.925,-0.703 2.741,-0.305 2.417,0 2.092,0.305 1.688,0.458 1.204,0.458 0.725,0.458 0.324,0.305 0,0 m 3.602,-1.694 h -4.154 c 0.038,-0.516 0.236,-0.933 0.594,-1.251 0.359,-0.318 0.812,-0.477 1.36,-0.477 0.308,0 0.591,0.055 0.849,0.166 0.258,0.11 0.482,0.272 0.671,0.485 L 3.299,-3.205 C 3.079,-3.469 2.804,-3.67 2.473,-3.809 2.143,-3.947 1.779,-4.017 1.383,-4.017 c -0.51,0 -0.961,0.109 -1.355,0.326 -0.393,0.217 -0.7,0.518 -0.92,0.902 -0.22,0.384 -0.33,0.818 -0.33,1.302 0,0.485 0.105,0.919 0.316,1.303 0.211,0.384 0.5,0.683 0.868,0.897 0.369,0.214 0.782,0.321 1.242,0.321 0.459,0 0.871,-0.107 1.236,-0.321 C 2.805,0.499 3.092,0.202 3.299,-0.179 3.507,-0.56 3.611,-0.996 3.611,-1.487 Z"
             style="fill:#000000;fill-opacity:1;fill-rule:nonzero;stroke:none"
             id="path196"
             inkscape:connector-curvature="0" />
        </g>
        <g
           id="g198"
           transform="matrix(0.33719913,0,0,-0.33719913,21.012402,294.69592)">
          <path
             d="m 0,0 v -4.965 h -0.67 v 4.37 h -2.379 l -0.066,-1.227 c -0.051,-1.032 -0.17,-1.825 -0.359,-2.379 -0.189,-0.553 -0.526,-0.83 -1.01,-0.83 -0.132,0 -0.293,0.025 -0.481,0.075 l 0.047,0.576 c 0.113,-0.025 0.191,-0.038 0.236,-0.038 0.258,0 0.453,0.12 0.585,0.359 0.132,0.239 0.22,0.535 0.264,0.887 0.044,0.353 0.082,0.818 0.114,1.397 L -3.634,0 Z"
             style="fill:#000000;fill-opacity:1;fill-rule:nonzero;stroke:none"
             id="path200"
             inkscape:connector-curvature="0" />
        </g>
        <g
           id="g202"
           transform="matrix(0.33719913,0,0,-0.33719913,22.669095,296.10761)">
          <path
             d="M 0,0 C 0.236,0.192 0.354,0.474 0.354,0.845 0.354,1.21 0.237,1.48 0.005,1.657 -0.228,1.833 -0.578,1.924 -1.043,1.93 L -2.336,1.949 V -0.26 l 1.293,-0.018 C -0.584,-0.285 -0.236,-0.192 0,0 M 0.547,2.015 C 0.872,1.745 1.034,1.354 1.034,0.845 1.034,0.316 0.859,-0.09 0.51,-0.373 0.161,-0.656 -0.345,-0.794 -1.005,-0.788 l -2.001,0.009 v 4.966 h 0.67 V 2.45 L -0.873,2.431 C -0.25,2.424 0.223,2.286 0.547,2.015"
             style="fill:#000000;fill-opacity:1;fill-rule:nonzero;stroke:none"
             id="path204"
             inkscape:connector-curvature="0" />
        </g>
        <g
           id="g206"
           transform="matrix(0.33719913,0,0,-0.33719913,24.542304,295.85619)">
          <path
             d="M 0,0 C -0.088,-0.456 -0.246,-0.769 -0.472,-0.939 H 2.624 V 2.846 H 0.236 L 0.179,1.742 C 0.148,1.037 0.088,0.457 0,0 M 4.068,-0.939 V -2.723 H 3.436 v 1.199 H -1.01 v -1.199 h -0.633 v 1.784 h 0.284 c 0.333,0.019 0.56,0.264 0.679,0.736 0.12,0.472 0.201,1.133 0.246,1.982 l 0.066,1.662 h 3.662 v -4.38 z"
             style="fill:#000000;fill-opacity:1;fill-rule:nonzero;stroke:none"
             id="path208"
             inkscape:connector-curvature="0" />
        </g>
        <g
           id="g210"
           transform="matrix(0.33719913,0,0,-0.33719913,27.722159,294.69592)">
          <path
             d="m 0,0 v -4.965 h -0.67 v 4.37 h -2.379 l -0.066,-1.227 c -0.051,-1.032 -0.17,-1.825 -0.359,-2.379 -0.189,-0.553 -0.526,-0.83 -1.01,-0.83 -0.132,0 -0.293,0.025 -0.481,0.075 l 0.047,0.576 c 0.113,-0.025 0.191,-0.038 0.236,-0.038 0.258,0 0.453,0.12 0.585,0.359 0.132,0.239 0.22,0.535 0.264,0.887 0.044,0.353 0.082,0.818 0.114,1.397 L -3.634,0 Z"
             style="fill:#000000;fill-opacity:1;fill-rule:nonzero;stroke:none"
             id="path212"
             inkscape:connector-curvature="0" />
        </g>
        <g
           id="g214"
           transform="matrix(0.33719913,0,0,-0.33719913,28.937897,295.64774)">
          <path
             d="M 0,0 H 1.501 V 2.228 H 0.047 C -0.922,2.228 -1.406,1.854 -1.406,1.104 -1.406,0.368 -0.937,0 0,0 M 2.115,2.823 V -2.143 H 1.501 V -0.5 h -1.558 -0.188 l -1.152,-1.643 h -0.727 l 1.237,1.737 c -0.384,0.107 -0.68,0.29 -0.887,0.548 -0.208,0.258 -0.312,0.585 -0.312,0.982 0,0.553 0.189,0.975 0.566,1.265 0.378,0.289 0.894,0.434 1.548,0.434 z"
             style="fill:#000000;fill-opacity:1;fill-rule:nonzero;stroke:none"
             id="path216"
             inkscape:connector-curvature="0" />
        </g>
        <g
           id="g218"
           transform="matrix(0.33719913,0,0,-0.33719913,32.305774,294.89646)">
          <path
             d="m 0,0 h -1.879 v -4.371 h -0.67 V 0 H -4.427 V 0.595 H 0 Z"
             style="fill:#000000;fill-opacity:1;fill-rule:nonzero;stroke:none"
             id="path220"
             inkscape:connector-curvature="0" />
        </g>
        <g
           id="g222"
           transform="matrix(0.33719913,0,0,-0.33719913,33.798487,296.10447)">
          <path
             d="m 0,0 c 0.283,0.161 0.505,0.389 0.666,0.685 0.16,0.295 0.24,0.632 0.24,1.009 0,0.378 -0.08,0.713 -0.24,1.006 C 0.505,2.993 0.283,3.221 0,3.384 -0.283,3.548 -0.598,3.63 -0.944,3.63 -1.296,3.63 -1.613,3.548 -1.893,3.384 -2.172,3.221 -2.393,2.993 -2.553,2.7 -2.714,2.407 -2.794,2.072 -2.794,1.694 c 0,-0.377 0.08,-0.714 0.241,-1.009 0.16,-0.296 0.381,-0.524 0.66,-0.685 0.28,-0.16 0.597,-0.241 0.949,-0.241 0.346,0 0.661,0.081 0.944,0.241 M 0.368,3.899 C 0.746,3.688 1.042,3.391 1.256,3.007 1.47,2.623 1.577,2.186 1.577,1.694 1.577,1.197 1.47,0.757 1.256,0.373 1.042,-0.011 0.748,-0.308 0.373,-0.519 -0.001,-0.73 -0.425,-0.835 -0.896,-0.835 c -0.403,0 -0.767,0.083 -1.091,0.25 -0.324,0.167 -0.59,0.411 -0.798,0.731 V -2.62 h -0.67 v 6.797 h 0.642 V 3.195 c 0.202,0.327 0.467,0.579 0.798,0.756 0.33,0.176 0.703,0.264 1.119,0.264 0.465,0 0.887,-0.106 1.264,-0.316"
             style="fill:#000000;fill-opacity:1;fill-rule:nonzero;stroke:none"
             id="path224"
             inkscape:connector-curvature="0" />
        </g>
        <g
           id="g226"
           transform="matrix(0.33719913,0,0,-0.33719913,35.632008,296.12029)">
          <path
             d="m 0,0 c 0.271,0.173 0.472,0.423 0.604,0.75 v 0.812 h -1.558 c -0.849,0 -1.274,-0.296 -1.274,-0.887 0,-0.29 0.11,-0.518 0.331,-0.685 0.22,-0.166 0.528,-0.25 0.924,-0.25 0.378,0 0.702,0.087 0.973,0.26 M 0.755,3.776 C 1.101,3.452 1.274,2.972 1.274,2.336 V -0.741 H 0.632 v 0.774 c -0.151,-0.258 -0.373,-0.46 -0.665,-0.604 -0.293,-0.145 -0.641,-0.218 -1.043,-0.218 -0.554,0 -0.995,0.133 -1.322,0.397 -0.327,0.265 -0.491,0.614 -0.491,1.048 0,0.422 0.153,0.761 0.458,1.019 0.306,0.258 0.791,0.388 1.458,0.388 h 1.577 v 0.301 c 0,0.428 -0.12,0.754 -0.359,0.977 -0.239,0.224 -0.588,0.336 -1.048,0.336 -0.314,0 -0.616,-0.052 -0.905,-0.156 -0.29,-0.104 -0.539,-0.247 -0.747,-0.43 l -0.301,0.501 c 0.251,0.214 0.553,0.379 0.906,0.495 0.352,0.117 0.724,0.175 1.114,0.175 0.648,0 1.145,-0.162 1.491,-0.486"
             style="fill:#000000;fill-opacity:1;fill-rule:nonzero;stroke:none"
             id="path228"
             inkscape:connector-curvature="0" />
        </g>
        <g
           id="g230"
           transform="matrix(0.33719913,0,0,-0.33719913,38.165789,294.69592)">
          <path
             d="m 0,0 v -4.965 h -0.67 v 4.37 h -3.116 v -4.37 h -0.67 V 0 Z"
             style="fill:#000000;fill-opacity:1;fill-rule:nonzero;stroke:none"
             id="path232"
             inkscape:connector-curvature="0" />
        </g>
        <g
           id="g234"
           transform="matrix(0.33719913,0,0,-0.33719913,39.05849,295.03181)">
          <path
             d="M 0,0 C -0.324,-0.305 -0.508,-0.703 -0.552,-1.194 H 2.969 C 2.925,-0.703 2.741,-0.305 2.417,0 2.092,0.305 1.688,0.458 1.204,0.458 0.725,0.458 0.324,0.305 0,0 m 3.602,-1.694 h -4.154 c 0.038,-0.516 0.236,-0.933 0.594,-1.251 0.359,-0.318 0.812,-0.477 1.36,-0.477 0.308,0 0.591,0.055 0.849,0.166 0.258,0.11 0.482,0.272 0.671,0.485 L 3.299,-3.205 C 3.079,-3.469 2.804,-3.67 2.473,-3.809 2.143,-3.947 1.779,-4.017 1.383,-4.017 c -0.51,0 -0.961,0.109 -1.355,0.326 -0.393,0.217 -0.7,0.518 -0.92,0.902 -0.22,0.384 -0.33,0.818 -0.33,1.302 0,0.485 0.105,0.919 0.316,1.303 0.211,0.384 0.5,0.683 0.868,0.897 0.369,0.214 0.782,0.321 1.242,0.321 0.459,0 0.871,-0.107 1.236,-0.321 C 2.805,0.499 3.092,0.202 3.299,-0.179 3.507,-0.56 3.611,-0.996 3.611,-1.487 Z"
             style="fill:#000000;fill-opacity:1;fill-rule:nonzero;stroke:none"
             id="path236"
             inkscape:connector-curvature="0" />
        </g>
        <g
           id="g238"
           transform="matrix(0.33719913,0,0,-0.33719913,41.818162,295.64133)">
          <path
             d="m 0,0 c 0.192,-0.201 0.288,-0.447 0.288,-0.736 0,-0.29 -0.099,-0.548 -0.297,-0.774 -0.199,-0.227 -0.468,-0.402 -0.807,-0.524 -0.34,-0.123 -0.715,-0.184 -1.124,-0.184 -0.358,0 -0.711,0.051 -1.057,0.155 -0.346,0.105 -0.649,0.257 -0.906,0.459 l 0.226,0.5 c 0.227,-0.17 0.491,-0.302 0.793,-0.397 0.302,-0.094 0.608,-0.142 0.916,-0.142 0.459,0 0.835,0.087 1.128,0.26 0.293,0.173 0.439,0.407 0.439,0.703 0,0.265 -0.12,0.471 -0.359,0.619 -0.239,0.147 -0.566,0.222 -0.982,0.222 h -0.849 v 0.49 h 0.812 c 0.371,0 0.67,0.071 0.896,0.213 0.227,0.141 0.34,0.332 0.34,0.571 0,0.264 -0.127,0.472 -0.382,0.623 -0.255,0.151 -0.587,0.227 -0.996,0.227 -0.535,0 -1.063,-0.136 -1.586,-0.407 l -0.189,0.52 c 0.592,0.308 1.205,0.462 1.841,0.462 0.377,0 0.719,-0.055 1.024,-0.165 0.306,-0.11 0.544,-0.266 0.718,-0.467 C 0.06,2.026 0.146,1.793 0.146,1.529 0.146,1.277 0.06,1.054 -0.113,0.859 -0.287,0.664 -0.521,0.519 -0.816,0.425 -0.464,0.343 -0.192,0.201 0,0"
             style="fill:#000000;fill-opacity:1;fill-rule:nonzero;stroke:none"
             id="path240"
             inkscape:connector-curvature="0" />
        </g>
      </g>
    </g>
  </g>
</svg>
